<svg width="30" height="31" viewBox="0 0 30 31" fill="none" xmlns="http://www.w3.org/2000/svg">
<circle cx="15" cy="15.5" r="15" fill="#E8E8E8"/>
<circle cx="15" cy="3.8335" r="2.5" fill="#B72C76"/>
<ellipse cx="15" cy="9.6665" rx="2.5" ry="2.5" fill="#EB027D"/>
<circle cx="15" cy="15.5" r="2.5" fill="#C4C4C4"/>
<circle cx="15" cy="21.3335" r="2.5" fill="#B72C76"/>
<ellipse cx="15" cy="27.1665" rx="2.5" ry="2.5" fill="#EB027D"/>
<circle cx="25.1036" cy="9.66653" r="2.5" transform="rotate(60 25.1036 9.66653)" fill="#EB027D"/>
<ellipse cx="20.0517" cy="12.5835" rx="2.5" ry="2.5" transform="rotate(60 20.0517 12.5835)" fill="#CF5495"/>
<circle cx="25" cy="15.5" r="2.5" fill="#F998CB"/>
<circle cx="5" cy="15.5" r="2.5" fill="#CE3184"/>
<ellipse cx="10" cy="6.3335" rx="2.5" ry="2.5" fill="#F998CB"/>
<circle cx="10" cy="24.6665" r="2.5" fill="#CE3184"/>
<ellipse cx="20" cy="6.3335" rx="2.5" ry="2.5" fill="#EE72B4"/>
<circle cx="20" cy="24.6665" r="2.5" fill="#CF5495"/>
<ellipse cx="15" cy="15.5" rx="2.5" ry="2.5" transform="rotate(60 15 15.5)" fill="#AD065E"/>
<circle cx="9.94816" cy="18.4165" r="2.5" transform="rotate(60 9.94816 18.4165)" fill="#FF73BD"/>
<ellipse cx="4.8964" cy="21.3335" rx="2.5" ry="2.5" transform="rotate(60 4.8964 21.3335)" fill="#EB027D"/>
<ellipse cx="25.1038" cy="21.3335" rx="2.5" ry="2.5" transform="rotate(120 25.1038 21.3335)" fill="#A50057"/>
<ellipse cx="20.052" cy="18.4165" rx="2.5" ry="2.5" transform="rotate(120 20.052 18.4165)" fill="#EFCDDF"/>
<circle cx="9.9484" cy="12.5835" r="2.5" transform="rotate(120 9.9484 12.5835)" fill="#F24CA3"/>
<ellipse cx="4.89652" cy="9.66653" rx="2.5" ry="2.5" transform="rotate(120 4.89652 9.66653)" fill="#FF73BD"/>
</svg>
