<svg width="1366" height="700" viewBox="0 0 1366 700" fill="none" xmlns="http://www.w3.org/2000/svg">
<mask id="mask0" style="mask-type:alpha" maskUnits="userSpaceOnUse" x="0" y="0" width="1366" height="700">
<rect width="1366" height="700" fill="#C4C4C4"/>
</mask>
<g mask="url(#mask0)">
<rect x="402" y="105" width="106" height="60" stroke="#F476B9" stroke-width="2"/>
<rect x="791" y="414" width="383" height="207" stroke="#F476B9" stroke-width="2"/>
<rect x="583" y="484.799" width="100" height="360.959" rx="50" fill="url(#paint0_linear)"/>
<rect x="783" y="328.949" width="100" height="380.794" rx="50" fill="url(#paint1_linear)"/>
<rect x="683" y="283.714" width="100" height="570.78" rx="50" fill="url(#paint2_linear)"/>
<rect x="783" y="85" width="100" height="387" rx="50" fill="url(#paint3_linear)"/>
<rect x="883" y="324.837" width="100" height="394.776" rx="50" fill="url(#paint4_linear)"/>
<rect x="983" y="389.809" width="100" height="360.959" rx="50" fill="url(#paint5_linear)"/>
<rect x="1082.6" y="556.041" width="100" height="360.959" rx="50" fill="url(#paint6_linear)"/>
<rect x="183" y="509.338" width="100" height="360.959" rx="50" fill="url(#paint7_linear)"/>
<rect x="583" y="219.563" width="100" height="360.959" rx="50" fill="url(#paint8_linear)"/>
<rect x="383" y="267.66" width="100" height="360.959" rx="50" fill="url(#paint9_linear)"/>
<rect x="383" y="456.302" width="100" height="360.959" rx="50" fill="url(#paint10_linear)"/>
<rect x="283" y="376.651" width="100" height="333.092" rx="50" fill="url(#paint11_linear)"/>
<rect x="483" y="400" width="100" height="360.959" rx="50" fill="url(#paint12_linear)"/>
<rect x="483" y="328.949" width="100" height="299.371" rx="50" fill="url(#paint13_linear)"/>
<rect x="1099" y="117" width="383" height="207" stroke="#F476B9" stroke-width="2"/>
<rect x="197" y="61" width="35" height="351" stroke="#F476B9" stroke-width="2"/>
<circle cx="1033" cy="262" r="126" stroke="#F476B9" stroke-width="2"/>
<circle cx="135" cy="370" r="176" stroke="#F476B9" stroke-width="2"/>
<circle cx="1351.5" cy="501.5" r="48.5" stroke="#F476B9" stroke-width="2"/>
</g>
<defs>
<linearGradient id="paint0_linear" x1="644.5" y1="484.799" x2="514.998" y2="796.775" gradientUnits="userSpaceOnUse">
<stop stop-color="white"/>
<stop offset="1" stop-color="#EB027D"/>
</linearGradient>
<linearGradient id="paint1_linear" x1="844.5" y1="328.949" x2="702.727" y2="652.695" gradientUnits="userSpaceOnUse">
<stop stop-color="white"/>
<stop offset="1" stop-color="#EB027D"/>
</linearGradient>
<linearGradient id="paint2_linear" x1="744.5" y1="283.714" x2="479.196" y2="687.898" gradientUnits="userSpaceOnUse">
<stop stop-color="#EB027D"/>
<stop offset="1" stop-color="white"/>
</linearGradient>
<linearGradient id="paint3_linear" x1="844.5" y1="85" x2="698.839" y2="412.292" gradientUnits="userSpaceOnUse">
<stop stop-color="white"/>
<stop offset="1" stop-color="#EB027D"/>
</linearGradient>
<linearGradient id="paint4_linear" x1="933" y1="710.955" x2="1074.08" y2="386.102" gradientUnits="userSpaceOnUse">
<stop stop-color="white"/>
<stop offset="1" stop-color="#EB027D"/>
</linearGradient>
<linearGradient id="paint5_linear" x1="1044.5" y1="389.809" x2="914.998" y2="701.786" gradientUnits="userSpaceOnUse">
<stop stop-color="white"/>
<stop offset="1" stop-color="#EB027D"/>
</linearGradient>
<linearGradient id="paint6_linear" x1="1144.1" y1="556.041" x2="1014.6" y2="868.017" gradientUnits="userSpaceOnUse">
<stop stop-color="#EB027D"/>
<stop offset="1" stop-color="white"/>
</linearGradient>
<linearGradient id="paint7_linear" x1="244.5" y1="509.338" x2="114.998" y2="821.314" gradientUnits="userSpaceOnUse">
<stop stop-color="#EB027D"/>
<stop offset="1" stop-color="white"/>
</linearGradient>
<linearGradient id="paint8_linear" x1="644.5" y1="219.563" x2="514.998" y2="531.539" gradientUnits="userSpaceOnUse">
<stop stop-color="white"/>
<stop offset="1" stop-color="#EB027D"/>
</linearGradient>
<linearGradient id="paint9_linear" x1="444.5" y1="267.66" x2="314.998" y2="579.636" gradientUnits="userSpaceOnUse">
<stop stop-color="#EB027D"/>
<stop offset="1" stop-color="white"/>
</linearGradient>
<linearGradient id="paint10_linear" x1="444.5" y1="456.302" x2="314.998" y2="768.278" gradientUnits="userSpaceOnUse">
<stop stop-color="#EB027D"/>
<stop offset="1" stop-color="white"/>
</linearGradient>
<linearGradient id="paint11_linear" x1="344.5" y1="376.651" x2="231.762" y2="670.963" gradientUnits="userSpaceOnUse">
<stop stop-color="white"/>
<stop offset="1" stop-color="#EB027D"/>
</linearGradient>
<linearGradient id="paint12_linear" x1="544.5" y1="400" x2="414.998" y2="711.976" gradientUnits="userSpaceOnUse">
<stop stop-color="#EB027D"/>
<stop offset="1" stop-color="white"/>
</linearGradient>
<linearGradient id="paint13_linear" x1="544.5" y1="328.949" x2="451.136" y2="600.137" gradientUnits="userSpaceOnUse">
<stop stop-color="#EB027D"/>
<stop offset="1" stop-color="white"/>
</linearGradient>
</defs>
</svg>
