<svg width="72" height="93" viewBox="0 0 72 93" fill="none" xmlns="http://www.w3.org/2000/svg">
<path d="M2.11426 89H7.89626V87.894H3.41626V78.724H2.11426V89ZM13.0801 89.182C14.9421 89.182 16.6081 87.726 16.6081 85.206C16.6081 82.672 14.9421 81.202 13.0801 81.202C11.2181 81.202 9.55208 82.672 9.55208 85.206C9.55208 87.726 11.2181 89.182 13.0801 89.182ZM13.0801 88.118C11.7641 88.118 10.8821 86.956 10.8821 85.206C10.8821 83.456 11.7641 82.266 13.0801 82.266C14.3961 82.266 15.2921 83.456 15.2921 85.206C15.2921 86.956 14.3961 88.118 13.0801 88.118ZM20.8476 89.182C21.7856 89.182 22.6396 88.692 23.3676 88.09H23.4096L23.5216 89H24.5716V84.324C24.5716 82.448 23.7876 81.202 21.9396 81.202C20.7216 81.202 19.6436 81.748 18.9436 82.196L19.4476 83.078C20.0496 82.672 20.8476 82.266 21.7296 82.266C22.9756 82.266 23.2976 83.204 23.2976 84.184C20.0636 84.548 18.6216 85.374 18.6216 87.026C18.6216 88.398 19.5736 89.182 20.8476 89.182ZM21.2116 88.16C20.4556 88.16 19.8676 87.81 19.8676 86.942C19.8676 85.962 20.7356 85.332 23.2976 85.024V87.152C22.5556 87.81 21.9536 88.16 21.2116 88.16ZM30.2899 89.182C31.1999 89.182 31.9979 88.692 32.5999 88.104H32.6419L32.7539 89H33.7899V77.856H32.5299V80.782L32.5859 82.098C31.9139 81.538 31.3399 81.202 30.4439 81.202C28.7079 81.202 27.1539 82.742 27.1539 85.206C27.1539 87.74 28.3859 89.182 30.2899 89.182ZM30.5699 88.118C29.2259 88.118 28.4699 87.026 28.4699 85.192C28.4699 83.456 29.4359 82.28 30.6679 82.28C31.2979 82.28 31.8719 82.504 32.5299 83.078V87.068C31.8859 87.768 31.2699 88.118 30.5699 88.118ZM37.0816 89H38.3556V81.398H37.0816V89ZM37.7256 79.83C38.2296 79.83 38.5796 79.494 38.5796 78.976C38.5796 78.486 38.2296 78.15 37.7256 78.15C37.2216 78.15 36.8716 78.486 36.8716 78.976C36.8716 79.494 37.2216 79.83 37.7256 79.83ZM41.637 89H42.911V83.484C43.681 82.714 44.213 82.322 44.997 82.322C46.005 82.322 46.439 82.924 46.439 84.352V89H47.713V84.184C47.713 82.238 46.985 81.202 45.389 81.202C44.353 81.202 43.569 81.776 42.841 82.49H42.799L42.687 81.398H41.637V89ZM53.4576 92.5C55.8096 92.5 57.3076 91.282 57.3076 89.868C57.3076 88.622 56.4116 88.062 54.6476 88.062H53.1636C52.1416 88.062 51.8336 87.726 51.8336 87.236C51.8336 86.816 52.0436 86.564 52.3236 86.326C52.6596 86.494 53.0796 86.592 53.4576 86.592C54.9976 86.592 56.2296 85.57 56.2296 83.946C56.2296 83.288 55.9776 82.728 55.6136 82.378H57.1676V81.398H54.5216C54.2556 81.3 53.8776 81.202 53.4576 81.202C51.9176 81.202 50.6016 82.252 50.6016 83.918C50.6016 84.828 51.0916 85.556 51.5956 85.962V86.018C51.2036 86.298 50.7416 86.802 50.7416 87.432C50.7416 88.034 51.0356 88.44 51.4416 88.678V88.734C50.7276 89.196 50.3216 89.812 50.3216 90.456C50.3216 91.772 51.5956 92.5 53.4576 92.5ZM53.4576 85.724C52.5756 85.724 51.8336 85.024 51.8336 83.918C51.8336 82.798 52.5616 82.14 53.4576 82.14C54.3536 82.14 55.0816 82.812 55.0816 83.918C55.0816 85.024 54.3256 85.724 53.4576 85.724ZM53.6396 91.632C52.2676 91.632 51.4416 91.1 51.4416 90.288C51.4416 89.84 51.6656 89.392 52.2116 89C52.5476 89.084 52.9116 89.126 53.1916 89.126H54.5076C55.5156 89.126 56.0616 89.364 56.0616 90.064C56.0616 90.862 55.0956 91.632 53.6396 91.632ZM60.1423 89.182C60.6463 89.182 61.0663 88.79 61.0663 88.216C61.0663 87.628 60.6463 87.222 60.1423 87.222C59.6383 87.222 59.2183 87.628 59.2183 88.216C59.2183 88.79 59.6383 89.182 60.1423 89.182ZM64.7388 89.182C65.2428 89.182 65.6628 88.79 65.6628 88.216C65.6628 87.628 65.2428 87.222 64.7388 87.222C64.2348 87.222 63.8148 87.628 63.8148 88.216C63.8148 88.79 64.2348 89.182 64.7388 89.182ZM69.3353 89.182C69.8393 89.182 70.2593 88.79 70.2593 88.216C70.2593 87.628 69.8393 87.222 69.3353 87.222C68.8313 87.222 68.4113 87.628 68.4113 88.216C68.4113 88.79 68.8313 89.182 69.3353 89.182Z" fill="#171717"/>
<path d="M51.3181 15.4994C52.7354 15.4994 53.8843 14.3505 53.8843 12.9332C53.8843 11.516 52.7354 10.3671 51.3181 10.3671C49.9009 10.3671 48.752 11.516 48.752 12.9332C48.752 14.3505 49.9009 15.4994 51.3181 15.4994Z" fill="#EB027D"/>
<path d="M46.162 16.8901C47.3169 16.8901 48.2532 15.9539 48.2532 14.7989C48.2532 13.644 47.3169 12.7077 46.162 12.7077C45.0071 12.7077 44.0708 13.644 44.0708 14.7989C44.0708 15.9539 45.0071 16.8901 46.162 16.8901Z" fill="#EB027D"/>
<path d="M29.5216 34.0809C30.1406 34.0809 30.6424 33.5791 30.6424 32.9601C30.6424 32.3411 30.1406 31.8394 29.5216 31.8394C28.9027 31.8394 28.4009 32.3411 28.4009 32.9601C28.4009 33.5791 28.9027 34.0809 29.5216 34.0809Z" fill="#EB027D"/>
<path d="M29.7656 36.9518C29.7812 36.2877 29.2555 35.7367 28.5915 35.7211C27.9274 35.7055 27.3764 36.2312 27.3608 36.8952C27.3452 37.5593 27.8709 38.1103 28.5349 38.1259C29.199 38.1415 29.75 37.6158 29.7656 36.9518Z" fill="#EB027D"/>
<path d="M29.1388 28.4942C29.8729 28.4942 30.468 27.8991 30.468 27.165C30.468 26.4309 29.8729 25.8358 29.1388 25.8358C28.4047 25.8358 27.8096 26.4309 27.8096 27.165C27.8096 27.8991 28.4047 28.4942 29.1388 28.4942Z" fill="#EB027D"/>
<path d="M28.5132 25.0738C29.3851 25.0738 30.0919 24.367 30.0919 23.4951C30.0919 22.6233 29.3851 21.9165 28.5132 21.9165C27.6414 21.9165 26.9346 22.6233 26.9346 23.4951C26.9346 24.367 27.6414 25.0738 28.5132 25.0738Z" fill="#EB027D"/>
<path d="M30.5636 31.3166C31.1826 31.3166 31.6844 30.8148 31.6844 30.1958C31.6844 29.5769 31.1826 29.0751 30.5636 29.0751C29.9447 29.0751 29.4429 29.5769 29.4429 30.1958C29.4429 30.8148 29.9447 31.3166 30.5636 31.3166Z" fill="#EB027D"/>
<path d="M32.5354 33.2575C33.0468 33.2575 33.4614 32.8429 33.4614 32.3315C33.4614 31.82 33.0468 31.4055 32.5354 31.4055C32.024 31.4055 31.6094 31.82 31.6094 32.3315C31.6094 32.8429 32.024 33.2575 32.5354 33.2575Z" fill="#EB027D"/>
<path d="M32.2141 35.4545C32.7255 35.4545 33.1401 35.04 33.1401 34.5285C33.1401 34.0171 32.7255 33.6025 32.2141 33.6025C31.7027 33.6025 31.2881 34.0171 31.2881 34.5285C31.2881 35.04 31.7027 35.4545 32.2141 35.4545Z" fill="#EB027D"/>
<path d="M32.6003 28.2686C33.2192 28.2686 33.721 27.7669 33.721 27.1479C33.721 26.5289 33.2192 26.0271 32.6003 26.0271C31.9813 26.0271 31.4795 26.5289 31.4795 27.1479C31.4795 27.7669 31.9813 28.2686 32.6003 28.2686Z" fill="#EB027D"/>
<path d="M33.3552 30.5307C33.8666 30.5307 34.2812 30.1161 34.2812 29.6047C34.2812 29.0933 33.8666 28.6787 33.3552 28.6787C32.8438 28.6787 32.4292 29.0933 32.4292 29.6047C32.4292 30.1161 32.8438 30.5307 33.3552 30.5307Z" fill="#EB027D"/>
<path d="M34.5818 36.2781C35.0083 36.2781 35.354 35.9323 35.354 35.5058C35.354 35.0793 35.0083 34.7336 34.5818 34.7336C34.1553 34.7336 33.8096 35.0793 33.8096 35.5058C33.8096 35.9323 34.1553 36.2781 34.5818 36.2781Z" fill="#EB027D"/>
<path d="M35.171 37.5165C35.1809 37.0901 34.8434 36.7364 34.417 36.7264C33.9907 36.7165 33.6369 37.054 33.627 37.4804C33.617 37.9067 33.9545 38.2605 34.3809 38.2705C34.8073 38.2804 35.161 37.9429 35.171 37.5165Z" fill="#EB027D"/>
<path d="M34.739 34.4636C35.1655 34.4636 35.5113 34.1179 35.5113 33.6914C35.5113 33.2649 35.1655 32.9191 34.739 32.9191C34.3125 32.9191 33.9668 33.2649 33.9668 33.6914C33.9668 34.1179 34.3125 34.4636 34.739 34.4636Z" fill="#EB027D"/>
<path d="M34.9988 32.3793C35.4253 32.3793 35.771 32.0336 35.771 31.6071C35.771 31.1806 35.4253 30.8348 34.9988 30.8348C34.5723 30.8348 34.2266 31.1806 34.2266 31.6071C34.2266 32.0336 34.5723 32.3793 34.9988 32.3793Z" fill="#EB027D"/>
<path d="M35.2927 30.3359C35.7192 30.3359 36.065 29.9902 36.065 29.5637C36.065 29.1372 35.7192 28.7914 35.2927 28.7914C34.8663 28.7914 34.5205 29.1372 34.5205 29.5637C34.5205 29.9902 34.8663 30.3359 35.2927 30.3359Z" fill="#EB027D"/>
<path d="M35.4465 28.0739C35.9579 28.0739 36.3725 27.6593 36.3725 27.1479C36.3725 26.6365 35.9579 26.2219 35.4465 26.2219C34.9351 26.2219 34.5205 26.6365 34.5205 27.1479C34.5205 27.6593 34.9351 28.0739 35.4465 28.0739Z" fill="#EB027D"/>
<path d="M39.188 20.8641C40.0599 20.8641 40.7667 20.1573 40.7667 19.2854C40.7667 18.4136 40.0599 17.7068 39.188 17.7068C38.3162 17.7068 37.6094 18.4136 37.6094 19.2854C37.6094 20.1573 38.3162 20.8641 39.188 20.8641Z" fill="#EB027D"/>
<path d="M36.9908 23.068C37.7249 23.068 38.32 22.4729 38.32 21.7388C38.32 21.0047 37.7249 20.4096 36.9908 20.4096C36.2567 20.4096 35.6616 21.0047 35.6616 21.7388C35.6616 22.4729 36.2567 23.068 36.9908 23.068Z" fill="#EB027D"/>
<path d="M35.9079 25.5932C36.5269 25.5932 37.0287 25.0914 37.0287 24.4724C37.0287 23.8534 36.5269 23.3516 35.9079 23.3516C35.2889 23.3516 34.7871 23.8534 34.7871 24.4724C34.7871 25.0914 35.2889 25.5932 35.9079 25.5932Z" fill="#EB027D"/>
<path d="M33.2085 22.224C34.0804 22.224 34.7872 21.5172 34.7872 20.6454C34.7872 19.7735 34.0804 19.0667 33.2085 19.0667C32.3367 19.0667 31.6299 19.7735 31.6299 20.6454C31.6299 21.5172 32.3367 22.224 33.2085 22.224Z" fill="#EB027D"/>
<path d="M32.4293 25.3403C33.1634 25.3403 33.7585 24.7452 33.7585 24.0111C33.7585 23.277 33.1634 22.6819 32.4293 22.6819C31.6952 22.6819 31.1001 23.277 31.1001 24.0111C31.1001 24.7452 31.6952 25.3403 32.4293 25.3403Z" fill="#EB027D"/>
<path d="M32.7411 37.431C32.7538 36.8839 32.3205 36.43 31.7734 36.4173C31.2263 36.4047 30.7725 36.8379 30.7598 37.385C30.7471 37.9321 31.1803 38.3859 31.7274 38.3986C32.2746 38.4113 32.7284 37.9781 32.7411 37.431Z" fill="#EB027D"/>
<path d="M42.2085 18.6703C43.1973 18.6703 43.999 17.8687 43.999 16.8799C43.999 15.891 43.1973 15.0894 42.2085 15.0894C41.2196 15.0894 40.418 15.891 40.418 16.8799C40.418 17.8687 41.2196 18.6703 42.2085 18.6703Z" fill="#EB027D"/>
<path d="M41.1052 11.358C42.5225 11.358 43.6714 10.2091 43.6714 8.79189C43.6714 7.37464 42.5225 6.22574 41.1052 6.22574C39.688 6.22574 38.5391 7.37464 38.5391 8.79189C38.5391 10.2091 39.688 11.358 41.1052 11.358Z" fill="#EB027D"/>
<path d="M37.4042 15.209C38.5591 15.209 39.4954 14.2727 39.4954 13.1178C39.4954 11.9628 38.5591 11.0266 37.4042 11.0266C36.2492 11.0266 35.313 11.9628 35.313 13.1178C35.313 14.2727 36.2492 15.209 37.4042 15.209Z" fill="#EB027D"/>
<path d="M34.852 18.8481C35.8409 18.8481 36.6425 18.0464 36.6425 17.0576C36.6425 16.0687 35.8409 15.2671 34.852 15.2671C33.8632 15.2671 33.0615 16.0687 33.0615 17.0576C33.0615 18.0464 33.8632 18.8481 34.852 18.8481Z" fill="#EB027D"/>
<path d="M31.6296 11.3204C33.0469 11.3204 34.1958 10.1715 34.1958 8.75429C34.1958 7.33705 33.0469 6.18814 31.6296 6.18814C30.2124 6.18814 29.0635 7.33705 29.0635 8.75429C29.0635 10.1715 30.2124 11.3204 31.6296 11.3204Z" fill="#EB027D"/>
<path d="M29.7059 16.5382C30.8609 16.5382 31.7971 15.6019 31.7971 14.447C31.7971 13.292 30.8609 12.3558 29.7059 12.3558C28.551 12.3558 27.6147 13.292 27.6147 14.447C27.6147 15.6019 28.551 16.5382 29.7059 16.5382Z" fill="#EB027D"/>
<path d="M28.6977 21.1579C29.6866 21.1579 30.4882 20.3563 30.4882 19.3674C30.4882 18.3786 29.6866 17.5769 28.6977 17.5769C27.7089 17.5769 26.9072 18.3786 26.9072 19.3674C26.9072 20.3563 27.7089 21.1579 28.6977 21.1579Z" fill="#EB027D"/>
<path d="M26.8937 31.9146C27.6278 31.9146 28.2229 31.3195 28.2229 30.5854C28.2229 29.8513 27.6278 29.2562 26.8937 29.2562C26.1596 29.2562 25.5645 29.8513 25.5645 30.5854C25.5645 31.3195 26.1596 31.9146 26.8937 31.9146Z" fill="#EB027D"/>
<path d="M24.7276 28.8222C25.5994 28.8222 26.3062 28.1154 26.3062 27.2436C26.3062 26.3717 25.5994 25.6649 24.7276 25.6649C23.8557 25.6649 23.1489 26.3717 23.1489 27.2436C23.1489 28.1154 23.8557 28.8222 24.7276 28.8222Z" fill="#EB027D"/>
<path d="M23.3882 24.7799C24.377 24.7799 25.1786 23.9783 25.1786 22.9894C25.1786 22.0005 24.377 21.1989 23.3882 21.1989C22.3993 21.1989 21.5977 22.0005 21.5977 22.9894C21.5977 23.9783 22.3993 24.7799 23.3882 24.7799Z" fill="#EB027D"/>
<path d="M26.5995 35.4921C26.6176 34.711 25.9992 34.0632 25.2181 34.045C24.4371 34.0269 23.7892 34.6454 23.7711 35.4264C23.753 36.2075 24.3714 36.8553 25.1525 36.8735C25.9335 36.8916 26.5814 36.2731 26.5995 35.4921Z" fill="#EB027D"/>
<path d="M23.9827 13.9071C25.3999 13.9071 26.5488 12.7582 26.5488 11.3409C26.5488 9.92368 25.3999 8.77478 23.9827 8.77478C22.5654 8.77478 21.4165 9.92368 21.4165 11.3409C21.4165 12.7582 22.5654 13.9071 23.9827 13.9071Z" fill="#EB027D"/>
<path d="M23.0497 19.8321C24.2046 19.8321 25.1409 18.8959 25.1409 17.7409C25.1409 16.586 24.2046 15.6497 23.0497 15.6497C21.8948 15.6497 20.9585 16.586 20.9585 17.7409C20.9585 18.8959 21.8948 19.8321 23.0497 19.8321Z" fill="#EB027D"/>
<path d="M19.3413 17.1145C19.3725 15.7806 18.3165 14.6741 16.9827 14.6428C15.6489 14.6116 14.5423 15.6676 14.5111 17.0014C14.4799 18.3352 15.5359 19.4418 16.8697 19.473C18.2035 19.5042 19.3101 18.4483 19.3413 17.1145Z" fill="#EB027D"/>
<path d="M19.8945 23.7259C19.9203 22.6222 19.0466 21.7066 17.943 21.6808C16.8393 21.655 15.9237 22.5287 15.8978 23.6323C15.872 24.736 16.7458 25.6516 17.8494 25.6775C18.9531 25.7033 19.8687 24.8295 19.8945 23.7259Z" fill="#EB027D"/>
<path d="M21.4316 28.9387C21.4547 27.9558 20.6765 27.1404 19.6936 27.1174C18.7107 27.0944 17.8952 27.8725 17.8722 28.8554C17.8492 29.8383 18.6274 30.6538 19.6103 30.6768C20.5932 30.6998 21.4086 29.9216 21.4316 28.9387Z" fill="#EB027D"/>
<path d="M23.6877 32.7739C23.7083 31.8947 23.0123 31.1654 22.1331 31.1448C21.254 31.1242 20.5246 31.8202 20.5041 32.6994C20.4835 33.5785 21.1795 34.3079 22.0586 34.3285C22.9378 34.349 23.6671 33.653 23.6877 32.7739Z" fill="#EB027D"/>
<g opacity="0.35">
<path d="M30.8953 57.7743C32.3125 57.7743 33.4614 56.6254 33.4614 55.2081C33.4614 53.7909 32.3125 52.642 30.8953 52.642C29.478 52.642 28.3291 53.7909 28.3291 55.2081C28.3291 56.6254 29.478 57.7743 30.8953 57.7743Z" fill="#EB027D"/>
<path d="M51.4914 31.2992C51.512 30.4201 50.816 29.6907 49.9369 29.6701C49.0577 29.6495 48.3283 30.3455 48.3078 31.2247C48.2872 32.1038 48.9832 32.8332 49.8623 32.8538C50.7415 32.8744 51.4709 32.1784 51.4914 31.2992Z" fill="#EB027D"/>
<path d="M47.273 38.3351C48.1448 38.3351 48.8516 37.6283 48.8516 36.7564C48.8516 35.8846 48.1448 35.1778 47.273 35.1778C46.4011 35.1778 45.6943 35.8846 45.6943 36.7564C45.6943 37.6283 46.4011 38.3351 47.273 38.3351Z" fill="#EB027D"/>
<path d="M48.2258 28.5738C48.244 27.7927 47.6257 27.1447 46.8447 27.1264C46.0636 27.1082 45.4156 27.7265 45.3974 28.5075C45.3791 29.2886 45.9974 29.9366 46.7785 29.9549C47.5595 29.9731 48.2075 29.3548 48.2258 28.5738Z" fill="#EB027D"/>
<path d="M48.6123 42.8011C49.6011 42.8011 50.4028 41.9995 50.4028 41.0106C50.4028 40.0217 49.6011 39.2201 48.6123 39.2201C47.6234 39.2201 46.8218 40.0217 46.8218 41.0106C46.8218 41.9995 47.6234 42.8011 48.6123 42.8011Z" fill="#EB027D"/>
<path d="M42.8614 38.1642C43.5955 38.1642 44.1906 37.5691 44.1906 36.835C44.1906 36.1009 43.5955 35.5058 42.8614 35.5058C42.1273 35.5058 41.5322 36.1009 41.5322 36.835C41.5322 37.5691 42.1273 38.1642 42.8614 38.1642Z" fill="#EB027D"/>
<path d="M43.4868 42.0835C44.3587 42.0835 45.0655 41.3767 45.0655 40.5049C45.0655 39.633 44.3587 38.9262 43.4868 38.9262C42.615 38.9262 41.9082 39.633 41.9082 40.5049C41.9082 41.3767 42.615 42.0835 43.4868 42.0835Z" fill="#EB027D"/>
<path d="M36.5539 37.7781C37.0653 37.7781 37.4799 37.3635 37.4799 36.8521C37.4799 36.3407 37.0653 35.9261 36.5539 35.9261C36.0425 35.9261 35.6279 36.3407 35.6279 36.8521C35.6279 37.3635 36.0425 37.7781 36.5539 37.7781Z" fill="#EB027D"/>
<path d="M36.7073 35.212C37.1338 35.212 37.4795 34.8662 37.4795 34.4397C37.4795 34.0132 37.1338 33.6675 36.7073 33.6675C36.2808 33.6675 35.9351 34.0132 35.9351 34.4397C35.9351 34.8662 36.2808 35.212 36.7073 35.212Z" fill="#EB027D"/>
<path d="M37.0012 33.1652C37.4277 33.1652 37.7735 32.8195 37.7735 32.393C37.7735 31.9665 37.4277 31.6207 37.0012 31.6207C36.5747 31.6207 36.229 31.9665 36.229 32.393C36.229 32.8195 36.5747 33.1652 37.0012 33.1652Z" fill="#EB027D"/>
<path d="M37.4182 29.2664C37.8447 29.2664 38.1905 28.9207 38.1905 28.4942C38.1905 28.0677 37.8447 27.722 37.4182 27.722C36.9917 27.722 36.646 28.0677 36.646 28.4942C36.646 28.9207 36.9917 29.2664 37.4182 29.2664Z" fill="#EB027D"/>
<path d="M38.3712 26.5215C38.3811 26.0952 38.0436 25.7414 37.6172 25.7314C37.1909 25.7215 36.8371 26.059 36.8272 26.4854C36.8172 26.9117 37.1547 27.2655 37.5811 27.2755C38.0075 27.2854 38.3612 26.9479 38.3712 26.5215Z" fill="#EB027D"/>
<path d="M37.261 31.0808C37.6875 31.0808 38.0332 30.7351 38.0332 30.3086C38.0332 29.8821 37.6875 29.5364 37.261 29.5364C36.8345 29.5364 36.4888 29.8821 36.4888 30.3086C36.4888 30.7351 36.8345 31.0808 37.261 31.0808Z" fill="#EB027D"/>
<path d="M38.6311 35.3076C39.1425 35.3076 39.5571 34.893 39.5571 34.3816C39.5571 33.8702 39.1425 33.4556 38.6311 33.4556C38.1197 33.4556 37.7051 33.8702 37.7051 34.3816C37.7051 34.893 38.1197 35.3076 38.6311 35.3076Z" fill="#EB027D"/>
<path d="M39.4001 37.9729C40.0191 37.9729 40.5208 37.4711 40.5208 36.8521C40.5208 36.2331 40.0191 35.7313 39.4001 35.7313C38.7811 35.7313 38.2793 36.2331 38.2793 36.8521C38.2793 37.4711 38.7811 37.9729 39.4001 37.9729Z" fill="#EB027D"/>
<path d="M39.4651 32.5946C39.9765 32.5946 40.3911 32.18 40.3911 31.6686C40.3911 31.1571 39.9765 30.7426 39.4651 30.7426C38.9536 30.7426 38.5391 31.1571 38.5391 31.6686C38.5391 32.18 38.9536 32.5946 39.4651 32.5946Z" fill="#EB027D"/>
<path d="M39.7864 30.3974C40.2978 30.3974 40.7124 29.9829 40.7124 29.4714C40.7124 28.96 40.2978 28.5454 39.7864 28.5454C39.2749 28.5454 38.8604 28.96 38.8604 29.4714C38.8604 29.9829 39.2749 30.3974 39.7864 30.3974Z" fill="#EB027D"/>
<path d="M41.2383 26.6172C41.2511 26.0701 40.818 25.6162 40.2709 25.6034C39.7238 25.5906 39.2699 26.0237 39.2571 26.5708C39.2443 27.1179 39.6774 27.5718 40.2245 27.5846C40.7716 27.5974 41.2255 27.1643 41.2383 26.6172Z" fill="#EB027D"/>
<path d="M32.812 46.2932C33.6839 46.2932 34.3907 45.5864 34.3907 44.7146C34.3907 43.8427 33.6839 43.1359 32.812 43.1359C31.9402 43.1359 31.2334 43.8427 31.2334 44.7146C31.2334 45.5864 31.9402 46.2932 32.812 46.2932Z" fill="#EB027D"/>
<path d="M35.0094 43.5904C35.7435 43.5904 36.3386 42.9953 36.3386 42.2612C36.3386 41.5271 35.7435 40.932 35.0094 40.932C34.2753 40.932 33.6802 41.5271 33.6802 42.2612C33.6802 42.9953 34.2753 43.5904 35.0094 43.5904Z" fill="#EB027D"/>
<path d="M36.0924 40.6483C36.7114 40.6483 37.2132 40.1466 37.2132 39.5276C37.2132 38.9086 36.7114 38.4068 36.0924 38.4068C35.4735 38.4068 34.9717 38.9086 34.9717 39.5276C34.9717 40.1466 35.4735 40.6483 36.0924 40.6483Z" fill="#EB027D"/>
<path d="M38.792 44.9333C39.6639 44.9333 40.3707 44.2265 40.3707 43.3546C40.3707 42.4828 39.6639 41.776 38.792 41.776C37.9202 41.776 37.2134 42.4828 37.2134 43.3546C37.2134 44.2265 37.9202 44.9333 38.792 44.9333Z" fill="#EB027D"/>
<path d="M39.5709 41.3215C40.305 41.3215 40.9001 40.7264 40.9001 39.9923C40.9001 39.2582 40.305 38.6631 39.5709 38.6631C38.8368 38.6631 38.2417 39.2582 38.2417 39.9923C38.2417 40.7264 38.8368 41.3215 39.5709 41.3215Z" fill="#EB027D"/>
<path d="M41.4367 34.9249C42.0557 34.9249 42.5574 34.4232 42.5574 33.8042C42.5574 33.1852 42.0557 32.6834 41.4367 32.6834C40.8177 32.6834 40.3159 33.1852 40.3159 33.8042C40.3159 34.4232 40.8177 34.9249 41.4367 34.9249Z" fill="#EB027D"/>
<path d="M42.4787 32.1606C43.0977 32.1606 43.5994 31.6588 43.5994 31.0398C43.5994 30.4208 43.0977 29.919 42.4787 29.919C41.8597 29.919 41.3579 30.4208 41.3579 31.0398C41.3579 31.6588 41.8597 32.1606 42.4787 32.1606Z" fill="#EB027D"/>
<path d="M44.6396 27.1049C44.6552 26.4408 44.1296 25.8898 43.4655 25.8742C42.8014 25.8586 42.2504 26.3843 42.2348 27.0484C42.2192 27.7125 42.7449 28.2634 43.409 28.2791C44.073 28.2947 44.624 27.769 44.6396 27.1049Z" fill="#EB027D"/>
<path d="M20.6819 53.6329C22.0991 53.6329 23.248 52.484 23.248 51.0668C23.248 49.6495 22.0991 48.5006 20.6819 48.5006C19.2646 48.5006 18.1157 49.6495 18.1157 51.0668C18.1157 52.484 19.2646 53.6329 20.6819 53.6329Z" fill="#EB027D"/>
<path d="M25.8383 51.2922C26.9932 51.2922 27.9294 50.356 27.9294 49.2011C27.9294 48.0461 26.9932 47.1099 25.8383 47.1099C24.6833 47.1099 23.7471 48.0461 23.7471 49.2011C23.7471 50.356 24.6833 51.2922 25.8383 51.2922Z" fill="#EB027D"/>
<path d="M29.7915 48.9106C30.7803 48.9106 31.582 48.109 31.582 47.1201C31.582 46.1313 30.7803 45.3297 29.7915 45.3297C28.8026 45.3297 28.001 46.1313 28.001 47.1201C28.001 48.109 28.8026 48.9106 29.7915 48.9106Z" fill="#EB027D"/>
<path d="M34.5956 52.9734C35.7505 52.9734 36.6868 52.0371 36.6868 50.8822C36.6868 49.7273 35.7505 48.791 34.5956 48.791C33.4407 48.791 32.5044 49.7273 32.5044 50.8822C32.5044 52.0371 33.4407 52.9734 34.5956 52.9734Z" fill="#EB027D"/>
<path d="M37.1484 48.7329C38.1373 48.7329 38.9389 47.9313 38.9389 46.9424C38.9389 45.9536 38.1373 45.1519 37.1484 45.1519C36.1595 45.1519 35.3579 45.9536 35.3579 46.9424C35.3579 47.9313 36.1595 48.7329 37.1484 48.7329Z" fill="#EB027D"/>
<path d="M40.3704 57.8119C41.7876 57.8119 42.9365 56.663 42.9365 55.2457C42.9365 53.8285 41.7876 52.6796 40.3704 52.6796C38.9531 52.6796 37.8042 53.8285 37.8042 55.2457C37.8042 56.663 38.9531 57.8119 40.3704 57.8119Z" fill="#EB027D"/>
<path d="M42.2943 51.6442C43.4492 51.6442 44.3855 50.7079 44.3855 49.553C44.3855 48.3981 43.4492 47.4618 42.2943 47.4618C41.1394 47.4618 40.2031 48.3981 40.2031 49.553C40.2031 50.7079 41.1394 51.6442 42.2943 51.6442Z" fill="#EB027D"/>
<path d="M43.3022 46.423C44.2911 46.423 45.0927 45.6214 45.0927 44.6325C45.0927 43.6437 44.2911 42.842 43.3022 42.842C42.3134 42.842 41.5117 43.6437 41.5117 44.6325C41.5117 45.6214 42.3134 46.423 43.3022 46.423Z" fill="#EB027D"/>
<path d="M45.1065 34.7438C45.8406 34.7438 46.4358 34.1487 46.4358 33.4146C46.4358 32.6805 45.8406 32.0854 45.1065 32.0854C44.3724 32.0854 43.7773 32.6805 43.7773 33.4146C43.7773 34.1487 44.3724 34.7438 45.1065 34.7438Z" fill="#EB027D"/>
<path d="M48.0212 55.2286C49.4385 55.2286 50.5874 54.0797 50.5874 52.6625C50.5874 51.2452 49.4385 50.0963 48.0212 50.0963C46.604 50.0963 45.4551 51.2452 45.4551 52.6625C45.4551 54.0797 46.604 55.2286 48.0212 55.2286Z" fill="#EB027D"/>
<path d="M48.9506 48.3502C50.1055 48.3502 51.0418 47.414 51.0418 46.259C51.0418 45.1041 50.1055 44.1678 48.9506 44.1678C47.7956 44.1678 46.8594 45.1041 46.8594 46.259C46.8594 47.414 47.7956 48.3502 48.9506 48.3502Z" fill="#EB027D"/>
<path d="M54.1255 35.1461C54.1485 34.1632 53.3703 33.3477 52.3874 33.3247C51.4045 33.3017 50.5891 34.0798 50.5661 35.0628C50.5431 36.0457 51.3212 36.8611 52.3041 36.8841C53.287 36.9071 54.1025 36.129 54.1255 35.1461Z" fill="#EB027D"/>
<path d="M56.1006 40.3693C56.1264 39.2656 55.2527 38.35 54.149 38.3242C53.0454 38.2983 52.1297 39.1721 52.1039 40.2757C52.0781 41.3794 52.9518 42.295 54.0555 42.3208C55.1591 42.3467 56.0747 41.4729 56.1006 40.3693Z" fill="#EB027D"/>
<path d="M57.4856 46.9986C57.5167 45.6648 56.4606 44.5583 55.1268 44.5272C53.793 44.4961 52.6865 45.5522 52.6554 46.886C52.6243 48.2198 53.6804 49.3263 55.0142 49.3574C56.348 49.3885 57.4545 48.3324 57.4856 46.9986Z" fill="#EB027D"/>
</g>
</svg>
