<svg width="417" height="60" viewBox="0 0 417 60" fill="none" xmlns="http://www.w3.org/2000/svg">
<path d="M28 58C43.464 58 56 45.464 56 30C56 14.536 43.464 2 28 2C12.536 2 0 14.536 0 30C0 45.464 12.536 58 28 58Z" fill="#171717"/>
<path d="M41.4076 15.5639C42.6479 15.5639 43.6533 14.5585 43.6533 13.3182C43.6533 12.078 42.6479 11.0725 41.4076 11.0725C40.1673 11.0725 39.1619 12.078 39.1619 13.3182C39.1619 14.5585 40.1673 15.5639 41.4076 15.5639Z" fill="#EB027D"/>
<path d="M36.8952 16.7823C37.9062 16.7823 38.7258 15.9627 38.7258 14.9517C38.7258 13.9407 37.9062 13.1211 36.8952 13.1211C35.8842 13.1211 35.0646 13.9407 35.0646 14.9517C35.0646 15.9627 35.8842 16.7823 36.8952 16.7823Z" fill="#EB027D"/>
<path d="M22.3304 31.8238C22.8716 31.8238 23.3103 31.3851 23.3103 30.8438C23.3103 30.3026 22.8716 29.8639 22.3304 29.8639C21.7891 29.8639 21.3504 30.3026 21.3504 30.8438C21.3504 31.3851 21.7891 31.8238 22.3304 31.8238Z" fill="#EB027D"/>
<path d="M22.5459 34.3348C22.5596 33.7524 22.0986 33.2692 21.5162 33.2555C20.9339 33.2418 20.4506 33.7029 20.437 34.2852C20.4233 34.8676 20.8843 35.3508 21.4667 35.3645C22.049 35.3782 22.5323 34.9172 22.5459 34.3348Z" fill="#EB027D"/>
<path d="M21.9969 26.937C22.6396 26.937 23.1606 26.416 23.1606 25.7733C23.1606 25.1306 22.6396 24.6096 21.9969 24.6096C21.3542 24.6096 20.8332 25.1306 20.8332 25.7733C20.8332 26.416 21.3542 26.937 21.9969 26.937Z" fill="#EB027D"/>
<path d="M21.4524 23.9424C22.2154 23.9424 22.8339 23.3239 22.8339 22.5609C22.8339 21.7979 22.2154 21.1794 21.4524 21.1794C20.6895 21.1794 20.071 21.7979 20.071 22.5609C20.071 23.3239 20.6895 23.9424 21.4524 23.9424Z" fill="#EB027D"/>
<path d="M23.2425 29.4076C23.7837 29.4076 24.2224 28.9689 24.2224 28.4277C24.2224 27.8865 23.7837 27.4478 23.2425 27.4478C22.7013 27.4478 22.2625 27.8865 22.2625 28.4277C22.2625 28.9689 22.7013 29.4076 23.2425 29.4076Z" fill="#EB027D"/>
<path d="M24.9711 31.1024C25.4184 31.1024 25.781 30.7399 25.781 30.2926C25.781 29.8454 25.4184 29.4828 24.9711 29.4828C24.5239 29.4828 24.1613 29.8454 24.1613 30.2926C24.1613 30.7399 24.5239 31.1024 24.9711 31.1024Z" fill="#EB027D"/>
<path d="M24.6853 33.0217C25.1326 33.0217 25.4951 32.6592 25.4951 32.2119C25.4951 31.7647 25.1326 31.4021 24.6853 31.4021C24.2381 31.4021 23.8755 31.7647 23.8755 32.2119C23.8755 32.6592 24.2381 33.0217 24.6853 33.0217Z" fill="#EB027D"/>
<path d="M25.0256 26.7397C25.5668 26.7397 26.0056 26.3009 26.0056 25.7597C26.0056 25.2185 25.5668 24.7798 25.0256 24.7798C24.4844 24.7798 24.0457 25.2185 24.0457 25.7597C24.0457 26.3009 24.4844 26.7397 25.0256 26.7397Z" fill="#EB027D"/>
<path d="M25.6858 28.7135C26.133 28.7135 26.4956 28.3509 26.4956 27.9037C26.4956 27.4564 26.133 27.0939 25.6858 27.0939C25.2385 27.0939 24.876 27.4564 24.876 27.9037C24.876 28.3509 25.2385 28.7135 25.6858 28.7135Z" fill="#EB027D"/>
<path d="M26.7612 33.7432C27.1333 33.7432 27.4349 33.4415 27.4349 33.0695C27.4349 32.6974 27.1333 32.3958 26.7612 32.3958C26.3891 32.3958 26.0875 32.6974 26.0875 33.0695C26.0875 33.4415 26.3891 33.7432 26.7612 33.7432Z" fill="#EB027D"/>
<path d="M27.2733 34.8314C27.282 34.4594 26.9875 34.1508 26.6155 34.1421C26.2435 34.1334 25.9349 34.4279 25.9262 34.7999C25.9175 35.1718 26.212 35.4804 26.584 35.4892C26.9559 35.4979 27.2645 35.2034 27.2733 34.8314Z" fill="#EB027D"/>
<path d="M26.8973 32.1574C27.2694 32.1574 27.571 31.8557 27.571 31.4836C27.571 31.1116 27.2694 30.8099 26.8973 30.8099C26.5252 30.8099 26.2236 31.1116 26.2236 31.4836C26.2236 31.8557 26.5252 32.1574 26.8973 32.1574Z" fill="#EB027D"/>
<path d="M27.122 30.3334C27.494 30.3334 27.7957 30.0318 27.7957 29.6597C27.7957 29.2876 27.494 28.986 27.122 28.986C26.7499 28.986 26.4482 29.2876 26.4482 29.6597C26.4482 30.0318 26.7499 30.3334 27.122 30.3334Z" fill="#EB027D"/>
<path d="M27.3873 28.5433C27.7594 28.5433 28.0611 28.2417 28.0611 27.8696C28.0611 27.4976 27.7594 27.1959 27.3873 27.1959C27.0153 27.1959 26.7136 27.4976 26.7136 27.8696C26.7136 28.2417 27.0153 28.5433 27.3873 28.5433Z" fill="#EB027D"/>
<path d="M27.5166 26.5696C27.9639 26.5696 28.3264 26.207 28.3264 25.7598C28.3264 25.3125 27.9639 24.95 27.5166 24.95C27.0694 24.95 26.7068 25.3125 26.7068 25.7598C26.7068 26.207 27.0694 26.5696 27.5166 26.5696Z" fill="#EB027D"/>
<path d="M30.7902 20.2602C31.5532 20.2602 32.1717 19.6417 32.1717 18.8788C32.1717 18.1158 31.5532 17.4973 30.7902 17.4973C30.0273 17.4973 29.4088 18.1158 29.4088 18.8788C29.4088 19.6417 30.0273 20.2602 30.7902 20.2602Z" fill="#EB027D"/>
<path d="M28.8709 22.1864C29.5136 22.1864 30.0346 21.6654 30.0346 21.0227C30.0346 20.38 29.5136 19.859 28.8709 19.859C28.2282 19.859 27.7072 20.38 27.7072 21.0227C27.7072 21.6654 28.2282 22.1864 28.8709 22.1864Z" fill="#EB027D"/>
<path d="M27.925 24.3915C28.4662 24.3915 28.9049 23.9528 28.9049 23.4116C28.9049 22.8704 28.4662 22.4316 27.925 22.4316C27.3837 22.4316 26.945 22.8704 26.945 23.4116C26.945 23.9528 27.3837 24.3915 27.925 24.3915Z" fill="#EB027D"/>
<path d="M25.5632 21.4513C26.3262 21.4513 26.9447 20.8328 26.9447 20.0698C26.9447 19.3069 26.3262 18.6884 25.5632 18.6884C24.8003 18.6884 24.1818 19.3069 24.1818 20.0698C24.1818 20.8328 24.8003 21.4513 25.5632 21.4513Z" fill="#EB027D"/>
<path d="M24.8758 24.1738C25.5185 24.1738 26.0395 23.6528 26.0395 23.0101C26.0395 22.3674 25.5185 21.8464 24.8758 21.8464C24.2332 21.8464 23.7122 22.3674 23.7122 23.0101C23.7122 23.6528 24.2332 24.1738 24.8758 24.1738Z" fill="#EB027D"/>
<path d="M25.145 34.7532C25.1561 34.2761 24.7782 33.8803 24.3011 33.8692C23.8239 33.8581 23.4281 34.236 23.417 34.7131C23.4059 35.1903 23.7838 35.5861 24.261 35.5972C24.7381 35.6083 25.134 35.2304 25.145 34.7532Z" fill="#EB027D"/>
<path d="M33.4378 18.3341C34.3022 18.3341 35.0029 17.6334 35.0029 16.7689C35.0029 15.9045 34.3022 15.2037 33.4378 15.2037C32.5733 15.2037 31.8726 15.9045 31.8726 16.7689C31.8726 17.6334 32.5733 18.3341 33.4378 18.3341Z" fill="#EB027D"/>
<path d="M32.4712 11.9356C33.7115 11.9356 34.717 10.9302 34.717 9.68993C34.717 8.44966 33.7115 7.44421 32.4712 7.44421C31.231 7.44421 30.2255 8.44966 30.2255 9.68993C30.2255 10.9302 31.231 11.9356 32.4712 11.9356Z" fill="#EB027D"/>
<path d="M29.2316 15.3122C30.2426 15.3122 31.0622 14.4926 31.0622 13.4816C31.0622 12.4706 30.2426 11.651 29.2316 11.651C28.2206 11.651 27.401 12.4706 27.401 13.4816C27.401 14.4926 28.2206 15.3122 29.2316 15.3122Z" fill="#EB027D"/>
<path d="M26.9992 18.4906C27.8637 18.4906 28.5644 17.7899 28.5644 16.9254C28.5644 16.061 27.8637 15.3602 26.9992 15.3602C26.1348 15.3602 25.434 16.061 25.434 16.9254C25.434 17.7899 26.1348 18.4906 26.9992 18.4906Z" fill="#EB027D"/>
<path d="M24.1747 11.9016C25.4149 11.9016 26.4204 10.8961 26.4204 9.65587C26.4204 8.4156 25.4149 7.41016 24.1747 7.41016C22.9344 7.41016 21.929 8.4156 21.929 9.65587C21.929 10.8961 22.9344 11.9016 24.1747 11.9016Z" fill="#EB027D"/>
<path d="M22.4936 16.476C23.5046 16.476 24.3242 15.6564 24.3242 14.6454C24.3242 13.6344 23.5046 12.8148 22.4936 12.8148C21.4826 12.8148 20.663 13.6344 20.663 14.6454C20.663 15.6564 21.4826 16.476 22.4936 16.476Z" fill="#EB027D"/>
<path d="M21.6157 20.512C22.4802 20.512 23.1809 19.8112 23.1809 18.9468C23.1809 18.0824 22.4802 17.3816 21.6157 17.3816C20.7513 17.3816 20.0505 18.0824 20.0505 18.9468C20.0505 19.8112 20.7513 20.512 21.6157 20.512Z" fill="#EB027D"/>
<path d="M20.0299 29.9249C20.6726 29.9249 21.1936 29.4039 21.1936 28.7612C21.1936 28.1185 20.6726 27.5975 20.0299 27.5975C19.3872 27.5975 18.8662 28.1185 18.8662 28.7612C18.8662 29.4039 19.3872 29.9249 20.0299 29.9249Z" fill="#EB027D"/>
<path d="M18.1379 27.2229C18.9008 27.2229 19.5193 26.6044 19.5193 25.8414C19.5193 25.0785 18.9008 24.46 18.1379 24.46C17.3749 24.46 16.7564 25.0785 16.7564 25.8414C16.7564 26.6044 17.3749 27.2229 18.1379 27.2229Z" fill="#EB027D"/>
<path d="M16.9672 23.6836C17.8317 23.6836 18.5324 22.9829 18.5324 22.1184C18.5324 21.254 17.8317 20.5532 16.9672 20.5532C16.1028 20.5532 15.402 21.254 15.402 22.1184C15.402 22.9829 16.1028 23.6836 16.9672 23.6836Z" fill="#EB027D"/>
<path d="M19.7742 33.06C19.7901 32.3762 19.2486 31.809 18.5647 31.7931C17.8809 31.7772 17.3137 32.3187 17.2978 33.0025C17.282 33.6864 17.8235 34.2536 18.5073 34.2695C19.1911 34.2853 19.7583 33.7438 19.7742 33.06Z" fill="#EB027D"/>
<path d="M17.4844 14.1687C18.7246 14.1687 19.7301 13.1632 19.7301 11.923C19.7301 10.6827 18.7246 9.67725 17.4844 9.67725C16.2441 9.67725 15.2386 10.6827 15.2386 11.923C15.2386 13.1632 16.2441 14.1687 17.4844 14.1687Z" fill="#EB027D"/>
<path d="M16.667 19.3549C17.678 19.3549 18.4976 18.5353 18.4976 17.5243C18.4976 16.5133 17.678 15.6937 16.667 15.6937C15.656 15.6937 14.8364 16.5133 14.8364 17.5243C14.8364 18.5353 15.656 19.3549 16.667 19.3549Z" fill="#EB027D"/>
<path d="M13.419 16.9763C13.4463 15.8116 12.5241 14.8453 11.3594 14.818C10.1946 14.7907 9.22829 15.7128 9.20103 16.8776C9.17377 18.0424 10.0959 19.0087 11.2607 19.0359C12.4254 19.0632 13.3917 18.1411 13.419 16.9763Z" fill="#EB027D"/>
<path d="M13.9073 22.7603C13.9299 21.7947 13.1654 20.9936 12.1998 20.971C11.2342 20.9484 10.4331 21.7128 10.4105 22.6785C10.3879 23.6441 11.1524 24.4452 12.118 24.4678C13.0836 24.4904 13.8847 23.7259 13.9073 22.7603Z" fill="#EB027D"/>
<path d="M15.2541 27.3207C15.2743 26.4603 14.5931 25.7464 13.7327 25.7263C12.8722 25.7061 12.1584 26.3873 12.1383 27.2477C12.1181 28.1082 12.7993 28.822 13.6597 28.8421C14.5201 28.8623 15.234 28.1811 15.2541 27.3207Z" fill="#EB027D"/>
<path d="M17.2272 30.6805C17.2452 29.9103 16.6354 29.2713 15.8652 29.2532C15.095 29.2352 14.4559 29.845 14.4379 30.6152C14.4199 31.3855 15.0297 32.0245 15.7999 32.0425C16.5702 32.0606 17.2092 31.4508 17.2272 30.6805Z" fill="#EB027D"/>
<path d="M23.5349 52.5547C24.7752 52.5547 25.7806 51.5492 25.7806 50.3089C25.7806 49.0687 24.7752 48.0632 23.5349 48.0632C22.2946 48.0632 21.2892 49.0687 21.2892 50.3089C21.2892 51.5492 22.2946 52.5547 23.5349 52.5547Z" fill="white"/>
<path d="M41.5567 29.3859C41.5747 28.6156 40.9649 27.9766 40.1947 27.9586C39.4244 27.9405 38.7854 28.5503 38.7674 29.3206C38.7494 30.0908 39.3591 30.7298 40.1294 30.7479C40.8996 30.7659 41.5386 30.1561 41.5567 29.3859Z" fill="white"/>
<path d="M37.8686 35.5466C38.6315 35.5466 39.25 34.9281 39.25 34.1651C39.25 33.4022 38.6315 32.7837 37.8686 32.7837C37.1056 32.7837 36.4871 33.4022 36.4871 34.1651C36.4871 34.9281 37.1056 35.5466 37.8686 35.5466Z" fill="white"/>
<path d="M38.699 26.9993C38.715 26.3155 38.1736 25.7482 37.4898 25.7322C36.806 25.7162 36.2387 26.2576 36.2227 26.9414C36.2066 27.6252 36.748 28.1925 37.4318 28.2085C38.1157 28.2245 38.683 27.6832 38.699 26.9993Z" fill="white"/>
<path d="M39.0391 39.4533C39.9035 39.4533 40.6043 38.7525 40.6043 37.8881C40.6043 37.0236 39.9035 36.3229 39.0391 36.3229C38.1746 36.3229 37.4739 37.0236 37.4739 37.8881C37.4739 38.7525 38.1746 39.4533 39.0391 39.4533Z" fill="white"/>
<path d="M34.0095 35.397C34.6522 35.397 35.1732 34.876 35.1732 34.2333C35.1732 33.5906 34.6522 33.0696 34.0095 33.0696C33.3668 33.0696 32.8458 33.5906 32.8458 34.2333C32.8458 34.876 33.3668 35.397 34.0095 35.397Z" fill="white"/>
<path d="M34.554 38.8271C35.317 38.8271 35.9355 38.2086 35.9355 37.4457C35.9355 36.6827 35.317 36.0642 34.554 36.0642C33.791 36.0642 33.1725 36.6827 33.1725 37.4457C33.1725 38.2086 33.791 38.8271 34.554 38.8271Z" fill="white"/>
<path d="M28.483 35.0568C28.9302 35.0568 29.2928 34.6942 29.2928 34.247C29.2928 33.7997 28.9302 33.4371 28.483 33.4371C28.0357 33.4371 27.6732 33.7997 27.6732 34.247C27.6732 34.6942 28.0357 35.0568 28.483 35.0568Z" fill="white"/>
<path d="M28.6192 32.8108C28.9913 32.8108 29.2929 32.5092 29.2929 32.1371C29.2929 31.765 28.9913 31.4634 28.6192 31.4634C28.2471 31.4634 27.9455 31.765 27.9455 32.1371C27.9455 32.5092 28.2471 32.8108 28.6192 32.8108Z" fill="white"/>
<path d="M28.8778 31.0202C29.2499 31.0202 29.5515 30.7185 29.5515 30.3464C29.5515 29.9744 29.2499 29.6727 28.8778 29.6727C28.5057 29.6727 28.2041 29.9744 28.2041 30.3464C28.2041 30.7185 28.5057 31.0202 28.8778 31.0202Z" fill="white"/>
<path d="M29.2454 27.6107C29.6175 27.6107 29.9191 27.3091 29.9191 26.937C29.9191 26.5649 29.6175 26.2633 29.2454 26.2633C28.8733 26.2633 28.5717 26.5649 28.5717 26.937C28.5717 27.3091 28.8733 27.6107 29.2454 27.6107Z" fill="white"/>
<path d="M30.0787 25.2107C30.0874 24.8387 29.793 24.5301 29.421 24.5214C29.049 24.5127 28.7404 24.8072 28.7317 25.1791C28.723 25.5511 29.0175 25.8597 29.3895 25.8684C29.7614 25.8771 30.07 25.5826 30.0787 25.2107Z" fill="white"/>
<path d="M29.1092 29.1963C29.4813 29.1963 29.7829 28.8947 29.7829 28.5226C29.7829 28.1505 29.4813 27.8489 29.1092 27.8489C28.7371 27.8489 28.4355 28.1505 28.4355 28.5226C28.4355 28.8947 28.7371 29.1963 29.1092 29.1963Z" fill="white"/>
<path d="M30.3071 32.8992C30.7543 32.8992 31.1169 32.5366 31.1169 32.0894C31.1169 31.6421 30.7543 31.2795 30.3071 31.2795C29.8598 31.2795 29.4973 31.6421 29.4973 32.0894C29.4973 32.5366 29.8598 32.8992 30.3071 32.8992Z" fill="white"/>
<path d="M30.9741 35.2269C31.5153 35.2269 31.954 34.7881 31.954 34.2469C31.954 33.7057 31.5153 33.267 30.9741 33.267C30.4329 33.267 29.9941 33.7057 29.9941 34.2469C29.9941 34.7881 30.4329 35.2269 30.9741 35.2269Z" fill="white"/>
<path d="M31.0353 30.5233C31.4825 30.5233 31.8451 30.1608 31.8451 29.7135C31.8451 29.2663 31.4825 28.9037 31.0353 28.9037C30.588 28.9037 30.2255 29.2663 30.2255 29.7135C30.2255 30.1608 30.588 30.5233 31.0353 30.5233Z" fill="white"/>
<path d="M31.3143 28.5975C31.7616 28.5975 32.1242 28.235 32.1242 27.7877C32.1242 27.3405 31.7616 26.9779 31.3143 26.9779C30.8671 26.9779 30.5045 27.3405 30.5045 27.7877C30.5045 28.235 30.8671 28.5975 31.3143 28.5975Z" fill="white"/>
<path d="M32.5807 25.2907C32.5919 24.8135 32.2141 24.4177 31.737 24.4065C31.2598 24.3953 30.8639 24.7731 30.8527 25.2503C30.8416 25.7274 31.2193 26.1233 31.6965 26.1345C32.1737 26.1456 32.5696 25.7679 32.5807 25.2907Z" fill="white"/>
<path d="M25.2093 42.5092C25.9723 42.5092 26.5908 41.8908 26.5908 41.1278C26.5908 40.3648 25.9723 39.7463 25.2093 39.7463C24.4464 39.7463 23.8279 40.3648 23.8279 41.1278C23.8279 41.8908 24.4464 42.5092 25.2093 42.5092Z" fill="white"/>
<path d="M27.1354 40.1476C27.7781 40.1476 28.2991 39.6266 28.2991 38.9839C28.2991 38.3412 27.7781 37.8202 27.1354 37.8202C26.4927 37.8202 25.9717 38.3412 25.9717 38.9839C25.9717 39.6266 26.4927 40.1476 27.1354 40.1476Z" fill="white"/>
<path d="M28.0816 37.5682C28.6228 37.5682 29.0615 37.1294 29.0615 36.5882C29.0615 36.047 28.6228 35.6083 28.0816 35.6083C27.5404 35.6083 27.1016 36.047 27.1016 36.5882C27.1016 37.1294 27.5404 37.5682 28.0816 37.5682Z" fill="white"/>
<path d="M30.4431 41.3181C31.2061 41.3181 31.8246 40.6996 31.8246 39.9366C31.8246 39.1737 31.2061 38.5552 30.4431 38.5552C29.6801 38.5552 29.0616 39.1737 29.0616 39.9366C29.0616 40.6996 29.6801 41.3181 30.4431 41.3181Z" fill="white"/>
<path d="M31.1238 38.1601C31.7665 38.1601 32.2875 37.6391 32.2875 36.9965C32.2875 36.3538 31.7665 35.8328 31.1238 35.8328C30.4811 35.8328 29.9601 36.3538 29.9601 36.9965C29.9601 37.6391 30.4811 38.1601 31.1238 38.1601Z" fill="white"/>
<path d="M32.7572 32.5589C33.2984 32.5589 33.7371 32.1202 33.7371 31.5789C33.7371 31.0377 33.2984 30.599 32.7572 30.599C32.216 30.599 31.7772 31.0377 31.7772 31.5789C31.7772 32.1202 32.216 32.5589 32.7572 32.5589Z" fill="white"/>
<path d="M33.6692 30.1423C34.2104 30.1423 34.6491 29.7035 34.6491 29.1623C34.6491 28.6211 34.2104 28.1824 33.6692 28.1824C33.1279 28.1824 32.6892 28.6211 32.6892 29.1623C32.6892 29.7035 33.1279 30.1423 33.6692 30.1423Z" fill="white"/>
<path d="M35.5599 25.7168C35.5736 25.1344 35.1126 24.6512 34.5302 24.6375C33.9478 24.6238 33.4646 25.0848 33.4509 25.6672C33.4372 26.2496 33.8983 26.7328 34.4806 26.7465C35.063 26.7602 35.5462 26.2991 35.5599 25.7168Z" fill="white"/>
<path d="M14.5986 48.9338C15.8389 48.9338 16.8443 47.9284 16.8443 46.6881C16.8443 45.4478 15.8389 44.4424 14.5986 44.4424C13.3583 44.4424 12.3529 45.4478 12.3529 46.6881C12.3529 47.9284 13.3583 48.9338 14.5986 48.9338Z" fill="white"/>
<path d="M19.1105 46.8853C20.1215 46.8853 20.9411 46.0657 20.9411 45.0547C20.9411 44.0437 20.1215 43.2241 19.1105 43.2241C18.0995 43.2241 17.2799 44.0437 17.2799 45.0547C17.2799 46.0657 18.0995 46.8853 19.1105 46.8853Z" fill="white"/>
<path d="M22.5686 44.796C23.433 44.796 24.1337 44.0953 24.1337 43.2308C24.1337 42.3664 23.433 41.6656 22.5686 41.6656C21.7041 41.6656 21.0034 42.3664 21.0034 43.2308C21.0034 44.0953 21.7041 44.796 22.5686 44.796Z" fill="white"/>
<path d="M26.7747 48.3555C27.7857 48.3555 28.6053 47.5359 28.6053 46.5249C28.6053 45.5139 27.7857 44.6943 26.7747 44.6943C25.7637 44.6943 24.9441 45.5139 24.9441 46.5249C24.9441 47.5359 25.7637 48.3555 26.7747 48.3555Z" fill="white"/>
<path d="M29.0071 44.6463C29.8715 44.6463 30.5723 43.9455 30.5723 43.0811C30.5723 42.2166 29.8715 41.5159 29.0071 41.5159C28.1427 41.5159 27.4419 42.2166 27.4419 43.0811C27.4419 43.9455 28.1427 44.6463 29.0071 44.6463Z" fill="white"/>
<path d="M31.8247 52.5887C33.065 52.5887 34.0704 51.5833 34.0704 50.343C34.0704 49.1027 33.065 48.0973 31.8247 48.0973C30.5844 48.0973 29.579 49.1027 29.579 50.343C29.579 51.5833 30.5844 52.5887 31.8247 52.5887Z" fill="white"/>
<path d="M33.5125 47.1916C34.5236 47.1916 35.3431 46.372 35.3431 45.361C35.3431 44.35 34.5236 43.5304 33.5125 43.5304C32.5015 43.5304 31.6819 44.35 31.6819 45.361C31.6819 46.372 32.5015 47.1916 33.5125 47.1916Z" fill="white"/>
<path d="M34.3906 42.6249C35.2551 42.6249 35.9558 41.9241 35.9558 41.0597C35.9558 40.1953 35.2551 39.4945 34.3906 39.4945C33.5262 39.4945 32.8254 40.1953 32.8254 41.0597C32.8254 41.9241 33.5262 42.6249 34.3906 42.6249Z" fill="white"/>
<path d="M35.9697 32.4016C36.6123 32.4016 37.1334 31.8806 37.1334 31.2379C37.1334 30.5952 36.6123 30.0742 35.9697 30.0742C35.327 30.0742 34.806 30.5952 34.806 31.2379C34.806 31.8806 35.327 32.4016 35.9697 32.4016Z" fill="white"/>
<path d="M38.5218 50.3291C39.7621 50.3291 40.7676 49.3236 40.7676 48.0834C40.7676 46.8431 39.7621 45.8376 38.5218 45.8376C37.2816 45.8376 36.2761 46.8431 36.2761 48.0834C36.2761 49.3236 37.2816 50.3291 38.5218 50.3291Z" fill="white"/>
<path d="M39.3317 44.3127C40.3427 44.3127 41.1623 43.4931 41.1623 42.4821C41.1623 41.4711 40.3427 40.6515 39.3317 40.6515C38.3207 40.6515 37.5011 41.4711 37.5011 42.4821C37.5011 43.4931 38.3207 44.3127 39.3317 44.3127Z" fill="white"/>
<path d="M43.8589 32.7559C43.8791 31.8954 43.1979 31.1816 42.3375 31.1615C41.477 31.1413 40.7632 31.8225 40.7431 32.6829C40.7229 33.5433 41.4041 34.2572 42.2645 34.2773C43.1249 34.2975 43.8388 33.6163 43.8589 32.7559Z" fill="white"/>
<path d="M45.5871 37.3254C45.6097 36.3598 44.8452 35.5586 43.8796 35.536C42.914 35.5134 42.1128 36.2779 42.0902 37.2435C42.0676 38.2092 42.8321 39.0103 43.7977 39.0329C44.7633 39.0555 45.5645 38.291 45.5871 37.3254Z" fill="white"/>
<path d="M46.802 43.1249C46.8291 41.9602 45.9069 40.994 44.7421 40.9668C43.5774 40.9397 42.6112 41.8619 42.584 43.0266C42.5569 44.1914 43.4791 45.1576 44.6438 45.1848C45.8086 45.2119 46.7748 44.2897 46.802 43.1249Z" fill="white"/>
<path d="M66.2454 43.1216V38.4616H78.5087C80.4653 38.4616 81.7662 38.2792 82.408 37.9142C83.3447 37.3668 83.8165 36.5422 83.8165 35.4473C83.8165 34.1666 83.2683 33.2407 82.1686 32.6662C81.5511 32.3283 80.559 32.1559 79.1921 32.1559H74.207C71.1785 32.1559 68.9929 31.622 67.6539 30.5508C66.8213 29.8716 66.1726 29.0234 65.7042 28.0062C65.2324 26.9857 65 25.8908 65 24.7148C65 22.8867 65.5481 21.2173 66.6478 19.7034C67.7198 18.2402 69.4335 17.3785 71.7925 17.1183C72.5973 17.0406 73.7907 17 75.3726 17H88.6801V21.66H76.6597C74.8627 21.687 73.6693 21.7647 73.0796 21.8965C71.8723 22.1838 71.2722 23.0725 71.2722 24.5594C71.2722 25.8131 71.7821 26.6478 72.7986 27.0668C73.4681 27.3811 74.5956 27.5365 76.1775 27.5365H80.4792C82.6751 27.5365 84.3125 27.719 85.3845 28.0839C87.289 28.7091 88.6004 29.8074 89.3254 31.3753C89.8874 32.629 90.1684 33.974 90.1684 35.4102C90.1684 37.0018 89.7937 38.4245 89.0409 39.6782C87.9967 41.4523 86.4287 42.5235 84.3368 42.8885C83.3169 43.0439 81.7766 43.125 79.7125 43.125H66.2454V43.1216Z" fill="black"/>
<path d="M111.798 39.0497V24.0492H117.186V43.1217H106.57C105.044 43.1217 103.865 43.0102 103.032 42.7871C102.199 42.5675 101.464 42.1687 100.822 41.5943C99.4553 40.3946 98.7719 38.4482 98.7719 35.7583V24.0492H104.118V36.3091C104.118 37.1708 104.354 37.8433 104.822 38.3265C105.29 38.8098 105.929 39.0497 106.733 39.0497H111.798Z" fill="black"/>
<path d="M146.413 28.9423C145.608 27.1716 144.311 25.8537 142.521 24.9954C141.206 24.3668 139.499 24.0492 137.407 24.0492H132.665V17.0034H127.277V43.125H136.047C137.813 43.125 139.183 43.0203 140.144 42.831C141.105 42.6317 142.042 42.2633 142.961 41.7125C145.823 39.9925 147.263 37.1978 147.263 33.3252C147.259 31.737 146.978 30.2737 146.413 28.9423ZM140.463 37.5256C139.607 38.5394 138.337 39.0497 136.647 39.0497H132.665V28.1245H136.647C140.047 28.1245 141.75 29.9122 141.75 33.4908C141.75 35.0824 141.327 36.424 140.463 37.5256Z" fill="black"/>
<path d="M141.751 33.4908C141.751 35.0824 141.327 36.424 140.46 37.5256C139.603 38.5394 138.333 39.0496 136.644 39.0496H132.661V28.1245H136.644C140.047 28.1245 141.751 29.9121 141.751 33.4908Z" fill="#EB0C7B"/>
<path d="M166.034 27.6142H179.182V43.125H167.2C165.136 43.125 163.495 42.9763 162.274 42.6756C161.053 42.3748 159.949 41.8476 158.957 41.0907C156.144 38.9753 154.735 35.3324 154.735 30.1656C154.735 26.7965 155.405 23.9917 156.747 21.7445C157.74 20.0988 159.093 18.8991 160.806 18.1422C162.524 17.3785 164.751 17 167.484 17H179.186V21.66H168.13C165.743 21.66 164.015 22.1703 162.943 23.1874C161.656 24.387 161.014 26.543 161.014 29.6485C161.014 31.2402 161.181 32.6764 161.517 33.9571C161.854 35.2378 162.315 36.1908 162.905 36.8159C163.415 37.3904 164.116 37.8094 165.014 38.0696C165.913 38.3298 167.016 38.4616 168.331 38.4616H173.517V32.2742H166.038V27.6142H166.034Z" fill="black"/>
<path d="M202.179 31.5309C202.179 30.1994 201.905 29.2972 201.353 28.8275C200.805 28.3577 199.713 28.1212 198.075 28.1212H188.99V24.0492H198.075C199.709 24.0492 200.837 24.083 201.454 24.1472C202.072 24.2114 202.7 24.3364 203.345 24.5189C206.321 25.6172 207.726 28.2395 207.567 32.3926V43.1217H196.23C194.193 43.1217 192.785 43.0642 192.008 42.946C191.231 42.8277 190.547 42.5878 189.957 42.2228C188.376 41.1786 187.585 39.5971 187.585 37.4851C187.585 36.2077 187.9 35.0622 188.528 34.0585C189.156 33.0549 189.996 32.3689 191.04 32.004C191.952 31.6897 193.465 31.5342 195.584 31.5342H202.179V31.5309ZM202.179 35.6029H195.987H195.061C194.443 35.6029 193.954 35.7583 193.593 36.0726C193.232 36.3868 193.052 36.816 193.052 37.3634C193.052 37.965 193.274 38.3941 193.715 38.6543C194.159 38.9145 194.915 39.0463 195.987 39.0463H202.179V35.6029Z" fill="black"/>
<path d="M259.405 35.6434C259.405 36.9748 259.679 37.8771 260.231 38.3468C260.779 38.8165 261.872 39.0531 263.509 39.0531H273.622V43.1217H263.509C261.875 43.1217 260.748 43.0879 260.13 43.0237C259.513 42.9595 258.885 42.8345 258.24 42.652C255.263 41.5537 253.858 38.9314 254.018 34.7783V27.7968C254.018 25.7253 255.742 24.0492 257.865 24.0492H265.355C267.391 24.0492 268.8 24.1066 269.577 24.2249C270.354 24.3432 271.037 24.5831 271.627 24.9481C273.209 25.9923 274 27.5738 274 29.6858C274 30.9631 273.684 32.1087 273.056 33.1123C272.428 34.116 271.589 34.802 270.545 35.1669C269.632 35.4812 268.12 35.6366 266 35.6366H259.405V35.6434ZM259.405 31.568H265.598H266.524C267.141 31.568 267.631 31.4126 267.991 31.0983C268.352 30.784 268.533 30.3549 268.533 29.8074C268.533 29.2059 268.311 28.7768 267.87 28.5166C267.426 28.2564 266.67 28.1246 265.598 28.1246H259.405V31.568Z" fill="black"/>
<path d="M217.419 24.0492H237.2C238.997 24.0492 240.364 24.181 241.3 24.4412C242.237 24.7014 243.028 25.161 243.673 25.8132C244.853 27.0669 245.442 28.7903 245.442 30.9834V43.1217H240.055V31.8046C240.055 30.8922 240.013 30.2501 239.933 29.8852C239.854 29.5202 239.666 29.1924 239.371 28.9052C238.809 28.3848 237.963 28.1212 236.839 28.1212H233.984V43.1217H228.596V28.1246H222.806V43.1217H217.419V24.0492Z" fill="black"/>
<path fill-rule="evenodd" clip-rule="evenodd" d="M352.873 13.9127H357.993V43.125H348.156C343.657 43.125 341.39 40.7837 341.39 36.0651V30.1938C341.39 25.2591 343.621 22.8097 348.119 22.8097H352.873V13.9127ZM346.583 30.4099V36.4253C346.583 37.3258 347.022 37.794 347.9 37.794H352.8V28.1407H348.375C347.205 28.1407 346.729 28.9331 346.583 30.4099ZM293.521 15.3175H285.585L284.268 43.125H289.644L290.303 22.0893L294.911 43.125H302.042L306.577 22.0893L307.235 43.125H312.648L311.404 15.3175H303.468L298.495 37.65L293.521 15.3175ZM329.392 22.8097H324.821C320.469 22.8097 318.311 25.115 318.311 29.7255V36.0651C318.311 40.8558 320.25 43.125 324.675 43.125H329.246C333.598 43.125 335.756 40.7837 335.756 36.0651V29.7255C335.756 25.115 333.635 22.8097 329.392 22.8097ZM323.541 35.5968V30.4099C323.541 28.8971 324.163 28.1407 325.37 28.1407H328.807C329.978 28.1407 330.563 28.8611 330.563 30.2658V35.3807C330.563 37.0016 329.941 37.794 328.661 37.794H325.26C324.126 37.794 323.541 37.0736 323.541 35.5968ZM368.877 22.8097H363.72V35.4527C363.72 40.5676 366.171 43.125 371.035 43.125H380.763V22.8097H375.606V37.794H370.632C369.462 37.794 368.877 37.1457 368.877 35.8129V22.8097ZM386.66 13.9127H391.78V43.125H386.66V13.9127ZM402.157 38.0819C401.586 37.5947 401.302 36.6586 401.302 35.2774V35.2704H408.128C410.322 35.2704 411.886 35.1091 412.831 34.7831C413.912 34.4045 414.78 33.6928 415.43 32.6517C416.08 31.6104 416.407 30.422 416.407 29.0969C416.407 26.9058 415.588 25.2652 413.951 24.1819C413.34 23.8033 412.634 23.5544 411.829 23.4317C411.025 23.309 409.567 23.2494 407.46 23.2494H399.709C397.512 23.2494 395.727 24.9882 395.727 27.1372V34.3799C395.562 38.6884 397.016 41.4088 400.097 42.5482C400.764 42.7376 401.414 42.8672 402.053 42.9338C402.692 43.0004 403.859 43.0355 405.55 43.0355H416.016V38.8147H405.55C403.856 38.8147 402.724 38.5692 402.157 38.0819ZM408.67 31.0495H401.302V27.4773H407.712C408.821 27.4773 409.603 27.614 410.063 27.8839C410.518 28.1539 410.749 28.599 410.749 29.223C410.749 29.791 410.562 30.2362 410.188 30.5622C409.816 30.8883 409.308 31.0495 408.67 31.0495Z" fill="#EB027D"/>
</svg>
