<svg width="197" height="208" viewBox="0 0 197 208" fill="none" xmlns="http://www.w3.org/2000/svg">
<path d="M4.31831 202H5.80631V191.52H9.35831V190.256H0.766309V191.52H4.31831V202ZM12.1204 202H13.5764V195.696C14.4564 194.816 15.0644 194.368 15.9604 194.368C17.1124 194.368 17.6084 195.056 17.6084 196.688V202H19.0644V196.496C19.0644 194.272 18.2324 193.088 16.4084 193.088C15.2244 193.088 14.3284 193.744 13.5284 194.544L13.5764 192.752V189.264H12.1204V202ZM26.1432 202.208C27.3272 202.208 28.2552 201.808 29.0232 201.312L28.4952 200.352C27.8552 200.784 27.1672 201.04 26.3192 201.04C24.6712 201.04 23.5352 199.856 23.4392 198H29.2952C29.3272 197.792 29.3592 197.488 29.3592 197.168C29.3592 194.688 28.1112 193.088 25.9032 193.088C23.8872 193.088 21.9832 194.848 21.9832 197.664C21.9832 200.528 23.8392 202.208 26.1432 202.208ZM23.4232 196.944C23.5992 195.248 24.6872 194.256 25.9192 194.256C27.2792 194.256 28.0792 195.2 28.0792 196.944H23.4232ZM39.6367 202.208C40.6767 202.208 41.5887 201.648 42.2767 200.976H42.3247L42.4527 202H43.6367V189.264H42.1967V192.608L42.2607 194.112C41.4927 193.472 40.8367 193.088 39.8127 193.088C37.8287 193.088 36.0527 194.848 36.0527 197.664C36.0527 200.56 37.4607 202.208 39.6367 202.208ZM39.9567 200.992C38.4207 200.992 37.5567 199.744 37.5567 197.648C37.5567 195.664 38.6607 194.32 40.0687 194.32C40.7887 194.32 41.4447 194.576 42.1967 195.232V199.792C41.4607 200.592 40.7567 200.992 39.9567 200.992ZM49.3986 202.208C50.4706 202.208 51.4466 201.648 52.2786 200.96H52.3266L52.4546 202H53.6546V196.656C53.6546 194.512 52.7586 193.088 50.6466 193.088C49.2546 193.088 48.0226 193.712 47.2226 194.224L47.7986 195.232C48.4866 194.768 49.3986 194.304 50.4066 194.304C51.8306 194.304 52.1986 195.376 52.1986 196.496C48.5026 196.912 46.8546 197.856 46.8546 199.744C46.8546 201.312 47.9426 202.208 49.3986 202.208ZM49.8146 201.04C48.9506 201.04 48.2786 200.64 48.2786 199.648C48.2786 198.528 49.2706 197.808 52.1986 197.456V199.888C51.3506 200.64 50.6626 201.04 49.8146 201.04ZM59.7314 202.208C60.2594 202.208 60.8354 202.048 61.3314 201.888L61.0434 200.8C60.7554 200.912 60.3554 201.024 60.0514 201.024C59.0434 201.024 58.7074 200.416 58.7074 199.344V194.496H61.0594V193.312H58.7074V190.864H57.4914L57.3154 193.312L55.9554 193.392V194.496H57.2514V199.312C57.2514 201.04 57.8754 202.208 59.7314 202.208ZM65.4361 202.208C66.5081 202.208 67.4841 201.648 68.3161 200.96H68.3641L68.4921 202H69.6921V196.656C69.6921 194.512 68.7961 193.088 66.6841 193.088C65.2921 193.088 64.0601 193.712 63.2601 194.224L63.8361 195.232C64.5241 194.768 65.4361 194.304 66.4441 194.304C67.8681 194.304 68.2361 195.376 68.2361 196.496C64.5401 196.912 62.8921 197.856 62.8921 199.744C62.8921 201.312 63.9801 202.208 65.4361 202.208ZM65.8521 201.04C64.9881 201.04 64.3161 200.64 64.3161 199.648C64.3161 198.528 65.3081 197.808 68.2361 197.456V199.888C67.3881 200.64 66.7001 201.04 65.8521 201.04ZM79.0214 202H80.7334L81.9494 197.344C82.1734 196.512 82.3494 195.696 82.5414 194.816H82.6214C82.8294 195.696 82.9894 196.496 83.2134 197.312L84.4774 202H86.2374L88.5734 193.312H87.1974L85.9174 198.336C85.7254 199.168 85.5654 199.952 85.3734 200.768H85.3094C85.1014 199.952 84.9094 199.168 84.7014 198.336L83.3414 193.312H81.9174L80.5734 198.336C80.3494 199.152 80.1734 199.952 79.9814 200.768H79.9014C79.7414 199.952 79.5654 199.168 79.3894 198.336L78.0934 193.312H76.6054L79.0214 202ZM93.1017 202.208C94.1737 202.208 95.1497 201.648 95.9817 200.96H96.0297L96.1577 202H97.3577V196.656C97.3577 194.512 96.4617 193.088 94.3497 193.088C92.9577 193.088 91.7257 193.712 90.9257 194.224L91.5017 195.232C92.1897 194.768 93.1017 194.304 94.1097 194.304C95.5337 194.304 95.9017 195.376 95.9017 196.496C92.2057 196.912 90.5577 197.856 90.5577 199.744C90.5577 201.312 91.6457 202.208 93.1017 202.208ZM93.5177 201.04C92.6537 201.04 91.9817 200.64 91.9817 199.648C91.9817 198.528 92.9737 197.808 95.9017 197.456V199.888C95.0537 200.64 94.3657 201.04 93.5177 201.04ZM103.205 202.208C105.253 202.208 106.373 201.04 106.373 199.632C106.373 197.984 104.981 197.472 103.717 196.992C102.741 196.624 101.845 196.32 101.845 195.488C101.845 194.816 102.357 194.24 103.461 194.24C104.229 194.24 104.837 194.56 105.429 195.008L106.133 194.064C105.461 193.536 104.517 193.088 103.445 193.088C101.557 193.088 100.437 194.176 100.437 195.552C100.437 197.024 101.765 197.616 102.981 198.064C103.941 198.432 104.965 198.816 104.965 199.712C104.965 200.464 104.405 201.072 103.253 201.072C102.213 201.072 101.429 200.656 100.677 200.048L99.9569 201.008C100.789 201.696 101.973 202.208 103.205 202.208ZM113.595 202H115.051V195.696C115.931 194.816 116.539 194.368 117.435 194.368C118.587 194.368 119.083 195.056 119.083 196.688V202H120.539V196.496C120.539 194.272 119.707 193.088 117.883 193.088C116.699 193.088 115.803 193.744 114.971 194.56H114.923L114.795 193.312H113.595V202ZM127.553 202.208C129.681 202.208 131.585 200.544 131.585 197.664C131.585 194.768 129.681 193.088 127.553 193.088C125.425 193.088 123.521 194.768 123.521 197.664C123.521 200.544 125.425 202.208 127.553 202.208ZM127.553 200.992C126.049 200.992 125.041 199.664 125.041 197.664C125.041 195.664 126.049 194.304 127.553 194.304C129.057 194.304 130.081 195.664 130.081 197.664C130.081 199.664 129.057 200.992 127.553 200.992ZM137.119 202.208C137.647 202.208 138.223 202.048 138.719 201.888L138.431 200.8C138.143 200.912 137.743 201.024 137.439 201.024C136.431 201.024 136.095 200.416 136.095 199.344V194.496H138.447V193.312H136.095V190.864H134.879L134.703 193.312L133.343 193.392V194.496H134.639V199.312C134.639 201.04 135.263 202.208 137.119 202.208ZM145.832 202H147.288V194.496H149.128V193.312H147.288V191.936C147.288 190.816 147.688 190.224 148.52 190.224C148.824 190.224 149.176 190.304 149.496 190.448L149.816 189.344C149.416 189.168 148.888 189.056 148.36 189.056C146.632 189.056 145.832 190.16 145.832 191.92V193.312L144.648 193.392V194.496H145.832V202ZM154.8 202.208C156.928 202.208 158.832 200.544 158.832 197.664C158.832 194.768 156.928 193.088 154.8 193.088C152.672 193.088 150.768 194.768 150.768 197.664C150.768 200.544 152.672 202.208 154.8 202.208ZM154.8 200.992C153.296 200.992 152.288 199.664 152.288 197.664C152.288 195.664 153.296 194.304 154.8 194.304C156.304 194.304 157.328 195.664 157.328 197.664C157.328 199.664 156.304 200.992 154.8 200.992ZM164.455 202.208C165.655 202.208 166.519 201.584 167.335 200.64H167.383L167.495 202H168.711V193.312H167.255V199.472C166.423 200.512 165.799 200.944 164.903 200.944C163.751 200.944 163.271 200.256 163.271 198.64V193.312H161.815V198.816C161.815 201.024 162.631 202.208 164.455 202.208ZM172.445 202H173.901V195.696C174.781 194.816 175.389 194.368 176.285 194.368C177.437 194.368 177.933 195.056 177.933 196.688V202H179.389V196.496C179.389 194.272 178.557 193.088 176.733 193.088C175.549 193.088 174.653 193.744 173.821 194.56H173.773L173.645 193.312H172.445V202ZM185.987 202.208C187.027 202.208 187.939 201.648 188.627 200.976H188.675L188.803 202H189.987V189.264H188.547V192.608L188.611 194.112C187.843 193.472 187.187 193.088 186.163 193.088C184.179 193.088 182.403 194.848 182.403 197.664C182.403 200.56 183.811 202.208 185.987 202.208ZM186.307 200.992C184.771 200.992 183.907 199.744 183.907 197.648C183.907 195.664 185.011 194.32 186.419 194.32C187.139 194.32 187.795 194.576 188.547 195.232V199.792C187.811 200.592 187.107 200.992 186.307 200.992ZM194.501 202.208C195.077 202.208 195.557 201.76 195.557 201.104C195.557 200.432 195.077 199.968 194.501 199.968C193.925 199.968 193.445 200.432 193.445 201.104C193.445 201.76 193.925 202.208 194.501 202.208Z" fill="#171717"/>
<g filter="url(#filter0_f)">
<path d="M132.144 128.411L81.2924 157.999L33.1694 130.142L84.0206 100.554L132.144 128.411Z" fill="#B9B9B9"/>
</g>
<path d="M132.231 43.8428L132.206 121.165L81.3545 150.753L81.3801 73.4307L132.231 43.8428Z" fill="url(#paint0_linear)"/>
<path d="M129.617 50.417L129.592 77.0794L83.9946 103.613V76.9511L129.617 50.417Z" fill="#E8E8E8"/>
<path d="M129.617 80.98L129.592 107.642L83.9946 134.202V107.514L129.617 80.98Z" fill="#555555"/>
<path d="M81.3799 73.4003L81.3543 151.384L33.1694 123.708V45.7242L81.3799 73.4003Z" fill="url(#paint1_linear)"/>
<path d="M132.232 43.7345L81.3803 73.3223L33.2573 45.4647L84.1085 15.8769L132.232 43.7345Z" fill="url(#paint2_linear)"/>
<path d="M122.44 155.013L156.042 135.459L117.57 113.287L83.9683 132.841L122.44 155.013Z" fill="#575757"/>
<path d="M122.439 156.399L156.041 136.87V135.459L122.439 155.013V156.399Z" fill="#686868"/>
<path d="M122.44 155.013L83.9683 132.841V134.227L122.44 156.399V155.013Z" fill="#CACACA"/>
<path d="M121.234 92.7834L119.389 91.7313C119.542 91.6543 119.671 91.603 119.799 91.5517L121.644 92.6038C121.49 92.6295 121.362 92.6808 121.234 92.7834Z" fill="#B2B2B2"/>
<path d="M121.619 92.6037L119.773 91.5516C119.978 91.5003 120.158 91.5259 120.312 91.6029L122.157 92.655C122.029 92.578 121.824 92.5524 121.619 92.6037Z" fill="#B2B2B2"/>
<path d="M93.0663 127.811L91.2209 126.759C90.9902 126.631 90.8364 126.349 90.8364 125.938L92.6818 126.99C92.6818 127.401 92.8356 127.683 93.0663 127.811Z" fill="#C1C1C1"/>
<path d="M104.676 102.586L102.831 101.534L119.388 91.7311L121.234 92.7832L104.676 102.586Z" fill="#B2B2B2"/>
<path d="M102.37 100.892L100.524 99.8402C100.678 99.7376 100.858 99.6863 101.011 99.6349L102.857 100.687C102.677 100.738 102.524 100.79 102.37 100.892Z" fill="#B2B2B2"/>
<path d="M102.857 100.687L101.012 99.6349C101.319 99.5579 101.627 99.6092 101.858 99.7375L103.703 100.79C103.472 100.661 103.165 100.61 102.857 100.687Z" fill="#B2B2B2"/>
<path d="M92.6815 126.99L90.8361 125.938L89.9902 107.539L91.8357 108.565L92.6815 126.99Z" fill="#B2B2B2"/>
<path d="M93.1423 106.256L91.2969 105.204L100.524 99.8403L102.369 100.892L93.1423 106.256Z" fill="#B2B2B2"/>
<path d="M91.8356 108.565L89.9902 107.513C89.9902 106.948 90.2465 106.281 90.6566 105.768L92.502 106.82C92.0919 107.333 91.8356 108.001 91.8356 108.565Z" fill="#B2B2B2"/>
<path d="M92.5016 106.82L90.6562 105.768C90.8357 105.537 91.0663 105.332 91.297 105.203L93.1424 106.256C92.9117 106.384 92.6811 106.589 92.5016 106.82Z" fill="#B2B2B2"/>
<path d="M93.1426 106.256L102.37 100.892C103.062 100.482 103.856 100.636 104.113 101.252L104.702 102.586L121.259 92.7834C122.003 92.3472 122.592 92.6808 122.592 93.5276L122.233 109.438C122.233 110.233 121.695 111.234 120.977 111.645L93.9628 127.709C93.2708 128.119 92.6813 127.812 92.6813 126.99L91.8354 108.565C91.8354 107.718 92.3993 106.692 93.1426 106.256Z" fill="#C1C1C1"/>
<path d="M92.7842 118.83L91.964 118.856L91.0669 110.926L91.9896 111.44L92.7842 118.83Z" fill="#BFBFBF"/>
<path d="M91.9896 111.439L91.0669 110.926L119.414 92.1676L120.337 92.6808L91.9896 111.439Z" fill="#B6B6B6"/>
<path d="M120.337 92.6808L121.132 100.097L92.7843 118.83L91.9897 111.439L120.337 92.6808Z" fill="#F8F9FC"/>
<path d="M104.19 111.953C104.318 111.516 104.6 111.029 104.959 110.593C105.267 110.182 105.651 109.848 106.01 109.643L122.183 99.9173C122.362 99.8147 122.516 99.7377 122.67 99.712C122.9 99.6607 123.105 99.6863 123.259 99.7633L121.414 98.7112C121.26 98.6342 121.055 98.6086 120.824 98.6599C120.671 98.6855 120.517 98.7625 120.337 98.8652L104.164 108.591C103.806 108.796 103.447 109.155 103.114 109.54C102.78 109.977 102.473 110.464 102.345 110.9L101.781 112.748L90.9903 119.189C90.7084 119.369 90.4521 119.6 90.2214 119.882C89.8369 120.344 89.5806 120.934 89.6063 121.422L90.4264 135.074C90.4264 135.382 90.5546 135.613 90.7596 135.741L92.605 136.793C92.4 136.69 92.2718 136.459 92.2718 136.126L91.4517 122.474C91.4517 121.986 91.6823 121.422 92.0668 120.934C92.2975 120.652 92.5538 120.421 92.8357 120.241L103.626 113.8L104.19 111.953Z" fill="#C1C1C1"/>
<path d="M122.183 99.9172C122.952 99.4553 123.592 99.7119 123.618 100.482L123.259 117.726C123.259 118.445 122.67 119.42 121.926 119.856L93.6303 136.665C92.887 137.101 92.2718 136.87 92.2718 136.151L91.4517 122.499C91.4517 121.73 92.0668 120.729 92.8357 120.292L103.626 113.851L104.19 112.004C104.446 111.183 105.267 110.13 105.984 109.694L122.183 99.9172Z" fill="#D2D2D2"/>
<path d="M129.334 97.7613L127.488 96.7092C127.642 96.6322 127.77 96.5809 127.898 96.5296L129.744 97.5817C129.616 97.633 129.487 97.6844 129.334 97.7613Z" fill="#B2B2B2"/>
<path d="M129.744 97.6079L127.898 96.5558C128.103 96.5044 128.283 96.5301 128.437 96.6071L130.282 97.6592C130.128 97.5822 129.949 97.5566 129.744 97.6079Z" fill="#B2B2B2"/>
<path d="M101.166 132.79L99.3205 131.738C99.0898 131.609 98.936 131.327 98.936 130.917L100.781 131.969C100.807 132.379 100.935 132.662 101.166 132.79Z" fill="#C1C1C1"/>
<path d="M112.801 107.564L110.956 106.538L127.513 96.7096L129.333 97.7617L112.801 107.564Z" fill="#B2B2B2"/>
<path d="M110.469 105.871L108.624 104.819C108.778 104.716 108.957 104.665 109.111 104.614L110.956 105.666C110.803 105.717 110.649 105.768 110.469 105.871Z" fill="#B2B2B2"/>
<path d="M110.957 105.691L109.111 104.639C109.419 104.562 109.726 104.613 109.957 104.742L111.803 105.794C111.572 105.64 111.29 105.614 110.957 105.691Z" fill="#B2B2B2"/>
<path d="M100.781 131.969L98.9615 130.942L98.1157 112.517L99.9611 113.569L100.781 131.969Z" fill="#B2B2B2"/>
<path d="M101.243 111.234L99.4229 110.208L108.65 104.845L110.47 105.871L101.243 111.234Z" fill="#B2B2B2"/>
<path d="M99.9611 113.569L98.1157 112.517C98.1157 111.953 98.372 111.285 98.7821 110.772L100.628 111.824C100.217 112.312 99.9355 112.979 99.9611 113.569Z" fill="#B2B2B2"/>
<path d="M100.602 111.824L98.7563 110.772C98.9358 110.541 99.1664 110.336 99.3971 110.208L101.243 111.26C101.012 111.388 100.807 111.568 100.602 111.824Z" fill="#B2B2B2"/>
<path d="M101.243 111.234L110.47 105.871C111.162 105.46 111.957 105.614 112.213 106.23L112.803 107.565L129.36 97.7619C130.103 97.3256 130.693 97.6592 130.693 98.5061L130.334 114.416C130.334 115.212 129.796 116.213 129.078 116.623L102.089 132.687C101.397 133.098 100.808 132.79 100.808 131.969L99.9617 113.544C99.9361 112.723 100.526 111.67 101.243 111.234Z" fill="#C1C1C1"/>
<path d="M100.91 123.834H100.064L99.1924 115.905L100.115 116.418L100.91 123.834Z" fill="#BFBFBF"/>
<path d="M100.115 116.418L99.1924 115.905L127.54 97.1461L128.437 97.6849L100.115 116.418Z" fill="#B6B6B6"/>
<path d="M128.437 97.6849L129.232 105.075L100.91 123.834L100.115 116.418L128.437 97.6849Z" fill="#F8F9FC"/>
<path d="M112.316 116.957C112.444 116.52 112.726 116.033 113.084 115.597C113.392 115.186 113.777 114.852 114.135 114.647L130.308 104.921C130.488 104.819 130.641 104.742 130.795 104.716C131.026 104.665 131.231 104.69 131.385 104.767L129.539 103.715C129.386 103.638 129.181 103.613 128.95 103.664C128.796 103.69 128.642 103.767 128.463 103.869L112.29 113.595C111.931 113.8 111.572 114.16 111.239 114.545C110.906 114.981 110.598 115.468 110.47 115.905L109.906 117.752L99.1158 124.193C98.8339 124.373 98.5776 124.604 98.3469 124.886C97.9624 125.348 97.7061 125.938 97.7317 126.426L98.5519 140.078C98.5519 140.386 98.6801 140.617 98.8851 140.745L100.731 141.797C100.525 141.694 100.397 141.464 100.397 141.13L99.5772 127.478C99.5772 126.99 99.8078 126.426 100.192 125.938C100.423 125.656 100.679 125.425 100.961 125.245L111.752 118.804L112.316 116.957Z" fill="#C1C1C1"/>
<path d="M130.283 104.921C131.052 104.459 131.693 104.716 131.718 105.486L131.359 122.73C131.359 123.449 130.77 124.424 130.027 124.86L101.73 141.669C100.987 142.105 100.372 141.874 100.372 141.155L99.5518 127.504C99.5518 126.734 100.167 125.733 100.936 125.297L111.726 118.856L112.29 117.008C112.546 116.187 113.367 115.135 114.084 114.698L130.283 104.921Z" fill="#D2D2D2"/>
<path d="M137.587 102.92L135.741 101.868C135.869 101.791 136.023 101.739 136.151 101.688L137.997 102.74C137.843 102.766 137.715 102.817 137.587 102.92Z" fill="#B2B2B2"/>
<path d="M137.997 102.74L136.151 101.688C136.356 101.637 136.536 101.662 136.69 101.739L138.535 102.791C138.381 102.714 138.202 102.689 137.997 102.74Z" fill="#B2B2B2"/>
<path d="M109.418 137.948L107.573 136.896C107.342 136.767 107.188 136.485 107.188 136.074L109.034 137.126C109.034 137.537 109.188 137.819 109.418 137.948Z" fill="#C1C1C1"/>
<path d="M121.029 112.722L119.184 111.67L135.741 101.867L137.586 102.919L121.029 112.722Z" fill="#B2B2B2"/>
<path d="M118.722 111.029L116.877 109.977C117.031 109.874 117.21 109.823 117.364 109.771L119.209 110.823C119.03 110.875 118.876 110.926 118.722 111.029Z" fill="#B2B2B2"/>
<path d="M119.21 110.823L117.364 109.771C117.672 109.694 117.979 109.745 118.21 109.874L120.055 110.926C119.825 110.798 119.517 110.746 119.21 110.823Z" fill="#B2B2B2"/>
<path d="M109.034 137.127L107.189 136.074L106.343 117.675L108.188 118.701L109.034 137.127Z" fill="#B2B2B2"/>
<path d="M109.495 116.392L107.649 115.34L116.876 109.977L118.722 111.029L109.495 116.392Z" fill="#B2B2B2"/>
<path d="M108.188 118.701L106.343 117.649C106.343 117.085 106.599 116.417 107.009 115.904L108.855 116.956C108.444 117.47 108.188 118.137 108.188 118.701Z" fill="#B2B2B2"/>
<path d="M108.854 116.956L107.009 115.904C107.188 115.673 107.419 115.468 107.65 115.34L109.495 116.392C109.264 116.52 109.034 116.725 108.854 116.956Z" fill="#B2B2B2"/>
<path d="M109.495 116.392L118.722 111.029C119.414 110.618 120.208 110.772 120.465 111.388L121.054 112.722L137.611 102.92C138.355 102.483 138.944 102.817 138.944 103.664L138.585 119.574C138.585 120.37 138.047 121.37 137.33 121.781L110.315 137.845C109.623 138.256 109.033 137.948 109.033 137.127L108.188 118.702C108.188 117.855 108.751 116.828 109.495 116.392Z" fill="#C1C1C1"/>
<path d="M109.136 128.966L108.316 128.992L107.419 121.062L108.342 121.576L109.136 128.966Z" fill="#BFBFBF"/>
<path d="M108.342 121.576L107.419 121.062L135.766 102.304L136.689 102.817L108.342 121.576Z" fill="#B6B6B6"/>
<path d="M136.689 102.817L137.484 110.233L109.136 128.966L108.342 121.576L136.689 102.817Z" fill="#F8F9FC"/>
<path d="M120.543 122.089C120.671 121.653 120.953 121.165 121.312 120.729C121.619 120.318 122.004 119.985 122.362 119.779L138.535 110.054C138.715 109.951 138.869 109.874 139.022 109.848C139.253 109.797 139.458 109.823 139.612 109.9L137.766 108.847C137.613 108.77 137.408 108.745 137.177 108.796C137.023 108.822 136.869 108.899 136.69 109.001L120.517 118.727C120.158 118.932 119.799 119.292 119.466 119.677C119.133 120.113 118.851 120.6 118.697 121.037L118.133 122.884L107.343 129.325C107.061 129.505 106.805 129.736 106.574 130.018C106.189 130.48 105.933 131.07 105.959 131.558L106.779 145.21C106.779 145.518 106.907 145.749 107.112 145.877L108.958 146.929C108.753 146.827 108.624 146.596 108.624 146.262L107.804 132.61C107.804 132.122 108.035 131.558 108.419 131.07C108.65 130.788 108.906 130.557 109.188 130.377L119.979 123.936L120.543 122.089Z" fill="#C1C1C1"/>
<path d="M138.536 110.053C139.305 109.591 139.946 109.848 139.971 110.618L139.612 127.863C139.612 128.581 139.023 129.556 138.28 129.992L109.983 146.801C109.24 147.237 108.625 147.006 108.625 146.288L107.805 132.636C107.805 131.866 108.42 130.865 109.189 130.429L119.979 123.988L120.543 122.14C120.799 121.319 121.62 120.267 122.337 119.83L138.536 110.053Z" fill="#D2D2D2"/>
<path d="M146.455 107.565L144.609 106.513C144.738 106.436 144.891 106.384 145.019 106.333L146.865 107.385C146.737 107.436 146.583 107.488 146.455 107.565Z" fill="#B2B2B2"/>
<path d="M146.865 107.385L145.02 106.333C145.225 106.282 145.404 106.307 145.558 106.384L147.403 107.436C147.249 107.385 147.07 107.359 146.865 107.385Z" fill="#B2B2B2"/>
<path d="M118.287 142.593L116.441 141.541C116.21 141.412 116.057 141.13 116.057 140.719L117.902 141.772C117.902 142.182 118.056 142.464 118.287 142.593Z" fill="#C1C1C1"/>
<path d="M129.897 117.367L128.077 116.341L144.609 106.512L146.454 107.564L129.897 117.367Z" fill="#B2B2B2"/>
<path d="M127.591 115.674L125.745 114.622C125.899 114.519 126.078 114.468 126.232 114.416L128.077 115.468C127.924 115.52 127.744 115.571 127.591 115.674Z" fill="#B2B2B2"/>
<path d="M128.078 115.494L126.232 114.442C126.54 114.365 126.848 114.416 127.078 114.545L128.924 115.597C128.693 115.443 128.385 115.417 128.078 115.494Z" fill="#B2B2B2"/>
<path d="M117.902 141.772L116.057 140.745L115.236 122.32L117.056 123.372L117.902 141.772Z" fill="#B2B2B2"/>
<path d="M118.363 121.037L116.518 120.011L125.745 114.647L127.59 115.674L118.363 121.037Z" fill="#B2B2B2"/>
<path d="M117.056 123.372L115.211 122.32C115.211 121.755 115.467 121.088 115.877 120.575L117.723 121.627C117.313 122.115 117.056 122.782 117.056 123.372Z" fill="#B2B2B2"/>
<path d="M117.722 121.627L115.877 120.575C116.056 120.344 116.287 120.139 116.518 120.01L118.363 121.062C118.132 121.191 117.927 121.37 117.722 121.627Z" fill="#B2B2B2"/>
<path d="M118.363 121.037L127.59 115.674C128.282 115.263 129.076 115.417 129.333 116.033L129.922 117.367L146.48 107.565C147.223 107.128 147.812 107.462 147.812 108.309L147.454 124.219C147.454 125.015 146.915 126.015 146.198 126.426L119.183 142.49C118.491 142.901 117.901 142.593 117.901 141.772L117.056 123.347C117.056 122.525 117.645 121.473 118.363 121.037Z" fill="#C1C1C1"/>
<path d="M118.03 133.637H117.184L116.287 125.708L117.21 126.221L118.03 133.637Z" fill="#BFBFBF"/>
<path d="M117.21 126.221L116.287 125.707L144.635 106.949L145.557 107.488L117.21 126.221Z" fill="#B6B6B6"/>
<path d="M145.557 107.488L146.352 114.878L118.03 133.637L117.21 126.221L145.557 107.488Z" fill="#F8F9FC"/>
<path d="M129.411 126.759C129.539 126.323 129.821 125.836 130.18 125.399C130.487 124.989 130.872 124.655 131.231 124.45L147.403 114.724C147.583 114.622 147.737 114.545 147.89 114.519C148.121 114.468 148.326 114.493 148.48 114.57L146.635 113.518C146.481 113.441 146.276 113.415 146.045 113.467C145.891 113.492 145.738 113.569 145.558 113.672L129.385 123.398C129.026 123.603 128.668 123.962 128.334 124.347C128.001 124.784 127.719 125.271 127.565 125.707L127.002 127.555L116.211 133.996C115.929 134.176 115.673 134.407 115.442 134.689C115.058 135.151 114.801 135.741 114.827 136.229L115.647 149.881C115.647 150.189 115.775 150.419 115.98 150.548L117.826 151.6C117.621 151.497 117.493 151.266 117.493 150.933L116.672 137.281C116.672 136.793 116.903 136.229 117.288 135.741C117.518 135.459 117.774 135.228 118.056 135.048L128.847 128.607L129.411 126.759Z" fill="#C1C1C1"/>
<path d="M147.404 114.724C148.173 114.262 148.814 114.519 148.839 115.289L148.48 132.533C148.48 133.252 147.891 134.227 147.148 134.663L118.851 151.471C118.108 151.908 117.493 151.677 117.493 150.958L116.673 137.306C116.673 136.536 117.288 135.536 118.057 135.099L128.847 128.658L129.411 126.811C129.668 125.989 130.488 124.937 131.205 124.501L147.404 114.724Z" fill="#D2D2D2"/>
<path d="M169.446 105.486V133.508L126.387 158.554L126.412 130.557L169.446 105.486Z" fill="url(#paint3_linear)"/>
<path d="M126.413 130.557L126.387 158.554L122.491 156.45V128.427L126.413 130.557Z" fill="url(#paint4_linear)"/>
<path d="M169.447 105.486L126.413 130.557L122.491 128.427L165.551 103.382L169.447 105.486Z" fill="url(#paint5_linear)"/>
<path d="M89.8379 136.152L90.3761 135.844L90.4017 126.682L89.8635 126.99L89.8379 136.152Z" fill="#F9F9F9"/>
<path d="M91.1187 125.092L90.5805 125.399C90.1447 125.656 89.8628 126.195 89.8628 126.965L90.401 126.657C90.401 125.913 90.683 125.348 91.1187 125.092Z" fill="#F9F9F9"/>
<path d="M89.8628 126.991L90.401 126.683C90.401 125.913 90.683 125.374 91.1187 125.117L90.5805 125.425C90.1447 125.682 89.8628 126.221 89.8628 126.991Z" fill="#F9F9F9"/>
<path d="M88.1964 120.062L87.6582 120.37C88.0939 120.113 88.7091 120.139 89.4011 120.549L89.9393 120.241C89.2729 119.831 88.6578 119.805 88.1964 120.062Z" fill="#F9F9F9"/>
<path d="M89.4011 120.549L89.9394 120.241C89.4011 119.933 88.9142 119.856 88.5041 119.933L87.9658 120.241C88.3759 120.139 88.8629 120.241 89.4011 120.549Z" fill="#F9F9F9"/>
<path d="M87.9658 120.241L88.504 119.933C88.4015 119.959 88.299 120.01 88.1964 120.062L87.6582 120.37C87.7607 120.318 87.8632 120.267 87.9658 120.241Z" fill="#F9F9F9"/>
<path d="M99.4229 141.695L99.9611 141.387L100.012 132.226L99.4741 132.534L99.4229 141.695Z" fill="#F9F9F9"/>
<path d="M100.73 130.66L100.192 130.968C99.7565 131.225 99.4746 131.763 99.4746 132.533L100.013 132.225C100.013 131.456 100.295 130.917 100.73 130.66Z" fill="#F9F9F9"/>
<path d="M99.4746 132.533L100.013 132.225C100.013 131.456 100.295 130.917 100.73 130.66L100.192 130.968C99.7565 131.225 99.4746 131.763 99.4746 132.533Z" fill="#F9F9F9"/>
<path d="M109.034 147.237L109.572 146.929L109.624 137.768L109.06 138.076L109.034 147.237Z" fill="#F9F9F9"/>
<path d="M110.316 136.203L109.778 136.511C109.342 136.767 109.061 137.306 109.061 138.076L109.599 137.768C109.624 136.998 109.881 136.459 110.316 136.203Z" fill="#F9F9F9"/>
<path d="M109.061 138.076L109.599 137.768C109.599 136.998 109.881 136.459 110.316 136.203L109.778 136.511C109.342 136.767 109.061 137.306 109.061 138.076Z" fill="#F9F9F9"/>
<path d="M118.953 152.986L119.491 152.678L119.543 140.155L119.004 140.463L118.953 152.986Z" fill="#F9F9F9"/>
<path d="M116.57 136.254L117.109 135.946L89.9401 120.241L89.4019 120.549L116.57 136.254Z" fill="#F9F9F9"/>
<path d="M89.4014 120.549C88.043 119.78 86.9665 120.395 86.9409 121.935L86.8896 134.458L89.8115 136.152L89.8372 126.991C89.8372 125.451 90.9393 124.809 92.2977 125.605L94.4251 126.837C95.7835 127.606 96.86 129.505 96.86 131.045L96.8343 140.206L99.423 141.72L99.4487 132.559C99.4487 131.019 100.551 130.378 101.909 131.173L104.011 132.405C105.369 133.175 106.446 135.074 106.446 136.614L106.42 145.775L109.035 147.237L109.086 138.076C109.086 136.537 110.188 135.895 111.546 136.691L113.674 137.922C115.032 138.692 116.109 140.591 116.109 142.131L116.083 151.292L119.005 152.986L119.056 140.463C119.056 138.923 117.98 137.024 116.621 136.254L89.4014 120.549Z" fill="#D7D7D7"/>
<path d="M119.005 140.463L119.543 140.155C119.543 138.615 118.467 136.716 117.109 135.946L116.57 136.254C117.929 137.024 119.005 138.923 119.005 140.463Z" fill="#F9F9F9"/>
<path d="M119.006 140.463L119.544 140.155C119.544 139.411 119.314 138.615 118.903 137.871L118.365 138.179C118.75 138.923 119.006 139.744 119.006 140.463Z" fill="#F9F9F9"/>
<path d="M118.364 138.179L118.903 137.871C118.467 137.05 117.826 136.357 117.109 135.946L116.57 136.254C117.288 136.665 117.903 137.383 118.364 138.179Z" fill="#F9F9F9"/>
<path d="M141.282 30.4678L139.231 29.3131C139.385 29.2104 139.539 29.1591 139.693 29.1334L141.743 30.2882C141.589 30.3139 141.436 30.3908 141.282 30.4678Z" fill="#B2B2B2"/>
<path d="M141.717 30.2881L139.667 29.1334C139.898 29.082 140.103 29.1077 140.282 29.2103L142.333 30.3651C142.153 30.2625 141.948 30.2368 141.717 30.2881Z" fill="#B2B2B2"/>
<path d="M109.808 69.6016L107.758 68.4469C107.502 68.2929 107.348 67.985 107.322 67.5487L109.373 68.7035C109.398 69.1397 109.552 69.4477 109.808 69.6016Z" fill="#C1C1C1"/>
<path d="M122.802 41.4254L120.752 40.2706L139.232 29.3131L141.282 30.4679L122.802 41.4254Z" fill="#B2B2B2"/>
<path d="M120.215 39.526L118.164 38.3713C118.343 38.2686 118.523 38.1916 118.702 38.1403L120.753 39.2951C120.573 39.3464 120.394 39.4234 120.215 39.526Z" fill="#B2B2B2"/>
<path d="M120.753 39.3209L118.702 38.1661C119.061 38.0891 119.394 38.1404 119.65 38.2944L121.701 39.4492C121.445 39.2696 121.111 39.2439 120.753 39.3209Z" fill="#B2B2B2"/>
<path d="M109.398 68.6778L107.348 67.523L106.399 46.9424L108.45 48.1229L109.398 68.6778Z" fill="#B2B2B2"/>
<path d="M109.911 45.5313L107.86 44.3765L118.164 38.3717L120.214 39.5265L109.911 45.5313Z" fill="#B2B2B2"/>
<path d="M108.45 48.1229L106.399 46.9682C106.399 46.3266 106.681 45.5824 107.143 45.0179L109.193 46.1727C108.757 46.7372 108.45 47.4814 108.45 48.1229Z" fill="#B2B2B2"/>
<path d="M109.193 46.1726L107.143 45.0179C107.348 44.7613 107.604 44.5303 107.86 44.3763L109.911 45.5311C109.654 45.6851 109.398 45.916 109.193 46.1726Z" fill="#B2B2B2"/>
<path d="M109.91 45.5311L120.214 39.5263C120.983 39.0644 121.854 39.244 122.162 39.9112L122.802 41.3996L141.282 30.4421C142.102 29.9545 142.769 30.3394 142.794 31.2632L142.41 49.0467C142.41 49.9449 141.795 51.0483 141.026 51.5102L110.833 69.4733C110.064 69.9352 109.398 69.576 109.398 68.6778L108.449 48.0972C108.449 47.1734 109.09 46.0187 109.91 45.5311Z" fill="#C1C1C1"/>
<path d="M109.528 59.5679L108.579 59.5936L107.605 50.7404L108.631 51.3306L109.528 59.5679Z" fill="#BFBFBF"/>
<path d="M108.631 51.3307L107.605 50.7404L139.259 29.8006L140.285 30.3652L108.631 51.3307Z" fill="#B6B6B6"/>
<path d="M140.285 30.3651L141.156 38.6538L109.528 59.568L108.631 51.3306L140.285 30.3651Z" fill="#F8F9FC"/>
<path d="M122.24 51.8953C122.393 51.4077 122.701 50.8688 123.085 50.3813C123.444 49.945 123.854 49.5344 124.264 49.3035L142.334 38.4486C142.513 38.346 142.718 38.269 142.872 38.2177C143.129 38.1663 143.359 38.192 143.539 38.2946L141.488 37.1399C141.309 37.0372 141.078 37.0116 140.822 37.0629C140.642 37.1142 140.463 37.1655 140.284 37.2938L122.214 48.1487C121.829 48.3797 121.394 48.7646 121.035 49.2265C120.65 49.7141 120.343 50.2529 120.189 50.7405L119.548 52.8191L107.502 60.0044C107.194 60.184 106.887 60.4663 106.631 60.7742C106.195 61.3131 105.938 61.9546 105.938 62.4935L106.861 77.7365C106.861 78.0958 107.015 78.3524 107.22 78.4807L109.27 79.6355C109.04 79.5072 108.912 79.2505 108.912 78.8913L108.015 63.6483C108.015 63.1094 108.296 62.4679 108.707 61.929C108.963 61.621 109.245 61.3644 109.578 61.1591L121.624 53.9739L122.24 51.8953Z" fill="#C1C1C1"/>
<path d="M142.333 38.4486C143.205 37.9354 143.922 38.2176 143.922 39.0645L143.512 58.3107C143.512 59.1062 142.846 60.184 142.026 60.6715L110.449 79.4558C109.628 79.9434 108.936 79.6868 108.911 78.8656L108.014 63.6226C108.014 62.7758 108.706 61.6467 109.577 61.1591L121.624 53.9738L122.264 51.8953C122.546 50.9714 123.443 49.8167 124.289 49.3291L142.333 38.4486Z" fill="#D2D2D2"/>
<path d="M168.123 75.4154C160.816 75.4154 154.893 69.492 154.893 62.1846C154.893 54.8773 160.816 48.9539 168.123 48.9539C175.431 48.9539 181.354 54.8773 181.354 62.1846C181.354 69.492 175.431 75.4154 168.123 75.4154ZM166.8 66.1539V68.8H169.446V66.1539H166.8ZM169.446 63.9774C170.51 63.6569 171.423 62.9652 172.019 62.0281C172.615 61.0911 172.855 59.9713 172.694 58.8723C172.534 57.7733 171.984 56.7685 171.145 56.0409C170.306 55.3132 169.234 54.9111 168.123 54.9077C167.053 54.9076 166.015 55.2784 165.187 55.9569C164.359 56.6354 163.792 57.5798 163.581 58.6295L166.177 59.1495C166.251 58.7809 166.428 58.4408 166.687 58.1688C166.946 57.8968 167.278 57.7041 167.642 57.613C168.007 57.5219 168.39 57.5363 168.747 57.6544C169.104 57.7725 169.42 57.9895 169.658 58.2801C169.896 58.5707 170.047 58.9231 170.093 59.2961C170.139 59.6692 170.078 60.0476 169.917 60.3874C169.756 60.7271 169.502 61.0142 169.185 61.2152C168.867 61.4163 168.499 61.5231 168.123 61.5231C167.772 61.5231 167.436 61.6625 167.188 61.9106C166.94 62.1587 166.8 62.4953 166.8 62.8462V64.8308H169.446V63.9774Z" fill="#EB027D"/>
<defs>
<filter id="filter0_f" x="23.1694" y="90.5538" width="118.974" height="77.4454" filterUnits="userSpaceOnUse" color-interpolation-filters="sRGB">
<feFlood flood-opacity="0" result="BackgroundImageFix"/>
<feBlend mode="normal" in="SourceGraphic" in2="BackgroundImageFix" result="shape"/>
<feGaussianBlur stdDeviation="5" result="effect1_foregroundBlur"/>
</filter>
<linearGradient id="paint0_linear" x1="77.4925" y1="100.551" x2="166.8" y2="56.8896" gradientUnits="userSpaceOnUse">
<stop offset="0.00510204" stop-color="white"/>
<stop offset="1" stop-color="#ECECEC"/>
</linearGradient>
<linearGradient id="paint1_linear" x1="44.4187" y1="139.05" x2="44.4187" y2="-32.4617" gradientUnits="userSpaceOnUse">
<stop stop-color="#F4F4F4"/>
<stop offset="1" stop-color="#DEDEDE"/>
</linearGradient>
<linearGradient id="paint2_linear" x1="56.4493" y1="35.531" x2="340.291" y2="69.2444" gradientUnits="userSpaceOnUse">
<stop offset="0.00510204" stop-color="#F9F9F9"/>
<stop offset="1" stop-color="white"/>
</linearGradient>
<linearGradient id="paint3_linear" x1="126.39" y1="132.031" x2="169.451" y2="132.031" gradientUnits="userSpaceOnUse">
<stop offset="0.00510204" stop-color="white"/>
<stop offset="1" stop-color="#EBEBEB"/>
</linearGradient>
<linearGradient id="paint4_linear" x1="124.44" y1="156.232" x2="124.44" y2="122.089" gradientUnits="userSpaceOnUse">
<stop stop-color="#DDDDDD"/>
<stop offset="1" stop-color="white"/>
</linearGradient>
<linearGradient id="paint5_linear" x1="141.279" y1="116.408" x2="240.673" y2="128.214" gradientUnits="userSpaceOnUse">
<stop offset="0.00510204" stop-color="#EEEEEE"/>
<stop offset="1" stop-color="#B6B6B6"/>
</linearGradient>
</defs>
</svg>
